$MeshFormat
4.1 0 8
$EndMeshFormat
$PhysicalNames
5
1 8 "bottomfix"
1 9 "load"
1 12 "sidefix"
2 10 "soil1"
2 11 "soil2"
$EndPhysicalNames
$Entities
6 7 2 0
1 0 0 0 0 
2 1 0 0 0 
3 1 2 0 0 
4 0 2 0 0 
5 1 1 0 0 
6 0 1 0 0 
1 0 0 0 1 0 0 1 8 2 1 -2 
2 1 0 0 1 1 0 1 12 2 2 -5 
3 0 1 0 1 1 0 0 2 5 -6 
4 0 0 0 0 1 0 1 12 2 6 -1 
5 0 1 0 0 2 0 1 12 2 6 -4 
6 0 2 0 1 2 0 1 9 2 4 -3 
7 1 1 0 1 2 0 1 12 2 3 -5 
1 0 0 0 1 1 0 1 11 4 4 1 2 3 
2 0 1 0 1 2 0 1 10 4 5 6 7 3 
$EndEntities
$Nodes
15 703 1 703
0 1 0 1
1
0 0 0
0 2 0 1
2
1 0 0
0 3 0 1
3
1 2 0
0 4 0 1
4
0 2 0
0 5 0 1
5
1 1 0
0 6 0 1
6
0 1 0
1 1 1 17
7
8
9
10
11
12
13
14
15
16
17
18
19
20
21
22
23
0.1111111111109082 0 0 0.1111111111109082
0.2222222222217143 0 0 0.2222222222217143
0.333333333332501 0 0 0.333333333332501
0.4444444444432878 0 0 0.4444444444432878
0.5555555555543833 0 0 0.5555555555543833
0.6666666666657874 0 0 0.6666666666657874
0.7777777777771916 0 0 0.7777777777771916
0.8888888888885959 0 0 0.8888888888885959
0.0555555555554416 0 0 0.0555555555554416
0.1666666666663196 0 0 0.1666666666663196
0.2777777777771077 0 0 0.2777777777771077
0.3888888888878944 0 0 0.3888888888878944
0.4999999999986814 0 0 0.4999999999986814
0.6111111111100854 0 0 0.6111111111100854
0.7222222222214896 0 0 0.7222222222214896
0.8333333333328937 0 0 0.8333333333328937
0.944444444444298 0 0 0.944444444444298
1 2 1 17
24
25
26
27
28
29
30
31
32
33
34
35
36
37
38
39
40
1 0.1111111111109082 0 0.1111111111109082
1 0.2222222222217143 0 0.2222222222217143
1 0.333333333332501 0 0.333333333332501
1 0.4444444444432878 0 0.4444444444432878
1 0.5555555555543833 0 0.5555555555543833
1 0.6666666666657874 0 0.6666666666657874
1 0.7777777777771916 0 0.7777777777771916
1 0.8888888888885959 0 0.8888888888885959
1 0.0555555555554416 0 0.0555555555554416
1 0.1666666666663196 0 0.1666666666663196
1 0.2777777777771077 0 0.2777777777771077
1 0.3888888888878944 0 0.3888888888878944
1 0.4999999999986814 0 0.4999999999986814
1 0.6111111111100854 0 0.6111111111100854
1 0.7222222222214896 0 0.7222222222214896
1 0.8333333333328937 0 0.8333333333328937
1 0.944444444444298 0 0.944444444444298
1 3 1 17
41
42
43
44
45
46
47
48
49
50
51
52
53
54
55
56
57
0.8888888888884262 1 0 0.1111111111115738
0.777777777777932 1 0 0.222222222222068
0.6666666666675918 1 0 0.3333333333324083
0.5555555555572513 1 0 0.4444444444427487
0.4444444444462943 1 0 0.5555555555537057
0.3333333333347207 1 0 0.6666666666652793
0.2222222222231471 1 0 0.7777777777768529
0.1111111111115736 1 0 0.8888888888884264
0.9444444444442449 1 0 0.05555555555575512
0.8333333333331817 1 0 0.1666666666668183
0.7222222222227963 1 0 0.2777777777772037
0.6111111111123257 1 0 0.3888888888876743
0.5000000000019821 1 0 0.4999999999980179
0.3888888888905075 1 0 0.6111111111094925
0.2777777777789339 1 0 0.7222222222210661
0.1666666666673604 1 0 0.8333333333326396
0.05555555555578673 1 0 0.9444444444442133
1 4 1 17
58
59
60
61
62
63
64
65
66
67
68
69
70
71
72
73
74
0 0.8888888888884262 0 0.1111111111115738
0 0.777777777777932 0 0.222222222222068
0 0.6666666666675918 0 0.3333333333324083
0 0.5555555555572513 0 0.4444444444427487
0 0.4444444444462943 0 0.5555555555537057
0 0.3333333333347207 0 0.6666666666652793
0 0.2222222222231471 0 0.7777777777768529
0 0.1111111111115736 0 0.8888888888884264
0 0.9444444444442449 0 0.05555555555575512
0 0.8333333333331817 0 0.1666666666668183
0 0.7222222222227963 0 0.2777777777772037
0 0.6111111111123257 0 0.3888888888876743
0 0.5000000000019821 0 0.4999999999980179
0 0.3888888888905075 0 0.6111111111094925
0 0.2777777777789339 0 0.7222222222210661
0 0.1666666666673604 0 0.8333333333326396
0 0.05555555555578673 0 0.9444444444442133
1 5 1 17
75
76
77
78
79
80
81
82
83
84
85
86
87
88
89
90
91
0 1.111111111111111 0 0.1111111111111111
0 1.222222222222222 0 0.2222222222222222
0 1.333333333333333 0 0.3333333333333333
0 1.444444444444444 0 0.4444444444444444
0 1.555555555555556 0 0.5555555555555556
0 1.666666666666667 0 0.6666666666666666
0 1.777777777777778 0 0.7777777777777777
0 1.888888888888889 0 0.8888888888888888
0 1.055555555555523 0 0.05555555555552275
0 1.166666666666644 0 0.1666666666666441
0 1.277777777777854 0 0.2777777777778541
0 1.388888888888961 0 0.3888888888889612
0 1.499999999999817 0 0.499999999999817
0 1.611111111111077 0 0.6111111111110774
0 1.722222222222203 0 0.7222222222222026
0 1.833333333333254 0 0.8333333333332534
0 1.944444444444375 0 0.9444444444443753
1 6 1 17
92
93
94
95
96
97
98
99
100
101
102
103
104
105
106
107
108
0.1111111111109082 2 0 0.1111111111109082
0.2222222222217143 2 0 0.2222222222217143
0.333333333332501 2 0 0.333333333332501
0.4444444444432878 2 0 0.4444444444432878
0.5555555555543833 2 0 0.5555555555543833
0.6666666666657874 2 0 0.6666666666657874
0.7777777777771916 2 0 0.7777777777771916
0.8888888888885959 2 0 0.8888888888885959
0.0555555555554416 2 0 0.0555555555554416
0.1666666666663196 2 0 0.1666666666663196
0.2777777777771077 2 0 0.2777777777771077
0.3888888888878944 2 0 0.3888888888878944
0.4999999999986814 2 0 0.4999999999986814
0.6111111111100854 2 0 0.6111111111100854
0.7222222222214896 2 0 0.7222222222214896
0.8333333333328937 2 0 0.8333333333328937
0.944444444444298 2 0 0.944444444444298
1 7 1 17
109
110
111
112
113
114
115
116
117
118
119
120
121
122
123
124
125
1 1.888888888888889 0 0.1111111111111111
1 1.777777777777778 0 0.2222222222222222
1 1.666666666666667 0 0.3333333333333333
1 1.555555555555556 0 0.4444444444444444
1 1.444444444444444 0 0.5555555555555556
1 1.333333333333333 0 0.6666666666666666
1 1.222222222222222 0 0.7777777777777777
1 1.111111111111111 0 0.8888888888888888
1 1.944444444444477 0 0.05555555555552275
1 1.833333333333356 0 0.1666666666666441
1 1.722222222222146 0 0.2777777777778541
1 1.611111111111039 0 0.3888888888889612
1 1.500000000000183 0 0.499999999999817
1 1.388888888888923 0 0.6111111111110774
1 1.277777777777797 0 0.7222222222222026
1 1.166666666666746 0 0.8333333333332534
1 1.055555555555625 0 0.9444444444443753
2 1 1 289
126
127
128
129
130
131
132
133
134
135
136
137
138
139
140
141
142
143
144
145
146
147
148
149
150
151
152
153
154
155
156
157
158
159
160
161
162
163
164
165
166
167
168
169
170
171
172
173
174
175
176
177
178
179
180
181
182
183
184
185
186
187
188
189
190
191
192
193
194
195
196
197
198
199
200
201
202
203
204
205
206
207
208
209
210
211
212
213
214
215
216
217
218
219
220
221
222
223
224
225
226
227
228
229
230
231
232
233
234
235
236
237
238
239
240
241
242
243
244
245
246
247
248
249
250
251
252
253
254
255
256
257
258
259
260
261
262
263
264
265
266
267
268
269
270
271
272
273
274
275
276
277
278
279
280
281
282
283
284
285
286
287
288
289
290
291
292
293
294
295
296
297
298
299
300
301
302
303
304
305
306
307
308
309
310
311
312
313
314
315
316
317
318
319
320
321
322
323
324
325
326
327
328
329
330
331
332
333
334
335
336
337
338
339
340
341
342
343
344
345
346
347
348
349
350
351
352
353
354
355
356
357
358
359
360
361
362
363
364
365
366
367
368
369
370
371
372
373
374
375
376
377
378
379
380
381
382
383
384
385
386
387
388
389
390
391
392
393
394
395
396
397
398
399
400
401
402
403
404
405
406
407
408
409
410
411
412
413
414
0.1111111111114996 0.8888888888884451 0 0.8888888888884451 0.1111111111114996
0.2222222222229879 0.888888888888464 0 0.888888888888464 0.2222222222229879
0.3333333333344741 0.8888888888884825 0 0.8888888888884825 0.3333333333344741
0.4444444444459602 0.8888888888885017 0 0.8888888888885017 0.4444444444459602
0.5555555555569326 0.8888888888885206 0 0.8888888888885206 0.5555555555569326
0.6666666666673913 0.8888888888885392 0 0.8888888888885392 0.6666666666673913
0.7777777777778496 0.8888888888885584 0 0.8888888888885584 0.7777777777778496
0.888888888888445 0.888888888888577 0 0.888888888888577 0.888888888888445
0.1111111111114257 0.7777777777778497 0 0.7777777777778497 0.1111111111114257
0.2222222222228287 0.7777777777777675 0 0.7777777777777675 0.2222222222228287
0.3333333333342274 0.7777777777776851 0 0.7777777777776851 0.3333333333342274
0.4444444444456261 0.7777777777776029 0 0.7777777777776029 0.4444444444456261
0.5555555555566142 0.7777777777775206 0 0.7777777777775206 0.5555555555566142
0.666666666667191 0.7777777777774384 0 0.7777777777774384 0.666666666667191
0.7777777777777675 0.7777777777773562 0 0.7777777777773562 0.7777777777777675
0.8888888888884641 0.7777777777772739 0 0.7777777777772739 0.8888888888884641
0.1111111111113518 0.6666666666673913 0 0.6666666666673913 0.1111111111113518
0.2222222222226695 0.6666666666671908 0 0.6666666666671908 0.2222222222226695
0.3333333333339809 0.6666666666669905 0 0.6666666666669905 0.3333333333339809
0.4444444444452922 0.66666666666679 0 0.66666666666679 0.4444444444452922
0.5555555555562953 0.6666666666665892 0 0.6666666666665892 0.5555555555562953
0.6666666666669903 0.666666666666389 0 0.666666666666389 0.6666666666669903
0.7777777777776853 0.6666666666661882 0 0.6666666666661882 0.7777777777776853
0.8888888888884827 0.666666666665988 0 0.666666666665988 0.8888888888884827
0.1111111111112779 0.5555555555569327 0 0.5555555555569327 0.1111111111112779
0.2222222222225103 0.5555555555566141 0 0.5555555555566141 0.2222222222225103
0.3333333333337342 0.5555555555562954 0 0.5555555555562954 0.3333333333337342
0.4444444444449581 0.5555555555559766 0 0.5555555555559766 0.4444444444449581
0.5555555555559766 0.5555555555556579 0 0.5555555555556579 0.5555555555559766
0.66666666666679 0.5555555555553393 0 0.5555555555553393 0.66666666666679
0.7777777777776029 0.5555555555550207 0 0.5555555555550207 0.7777777777776029
0.8888888888885016 0.555555555554702 0 0.555555555554702 0.8888888888885016
0.1111111111112039 0.4444444444459603 0 0.4444444444459603 0.1111111111112039
0.2222222222223511 0.4444444444456261 0 0.4444444444456261 0.2222222222223511
0.3333333333334875 0.4444444444452922 0 0.4444444444452922 0.3333333333334875
0.4444444444446241 0.444444444444958 0 0.444444444444958 0.4444444444446241
0.5555555555556581 0.4444444444446241 0 0.4444444444446241 0.5555555555556581
0.6666666666665892 0.44444444444429 0 0.44444444444429 0.6666666666665892
0.7777777777775206 0.4444444444439559 0 0.4444444444439559 0.7777777777775206
0.8888888888885205 0.444444444443622 0 0.444444444443622 0.8888888888885205
0.11111111111113 0.333333333334474 0 0.333333333334474 0.11111111111113
0.2222222222221919 0.3333333333342274 0 0.3333333333342274 0.2222222222221919
0.3333333333332409 0.3333333333339809 0 0.3333333333339809 0.3333333333332409
0.44444444444429 0.3333333333337342 0 0.3333333333337342 0.44444444444429
0.5555555555553392 0.3333333333334876 0 0.3333333333334876 0.5555555555553392
0.666666666666389 0.3333333333332409 0 0.3333333333332409 0.666666666666389
0.7777777777774384 0.3333333333329942 0 0.3333333333329942 0.7777777777774384
0.8888888888885393 0.3333333333327477 0 0.3333333333327477 0.8888888888885393
0.1111111111110561 0.222222222222988 0 0.222222222222988 0.1111111111110561
0.2222222222220327 0.2222222222228287 0 0.2222222222228287 0.2222222222220327
0.3333333333329944 0.2222222222226695 0 0.2222222222226695 0.3333333333329944
0.4444444444439559 0.2222222222225103 0 0.2222222222225103 0.4444444444439559
0.5555555555550208 0.2222222222223511 0 0.2222222222223511 0.5555555555550208
0.6666666666661885 0.2222222222221919 0 0.2222222222221919 0.6666666666661885
0.777777777777356 0.2222222222220327 0 0.2222222222220327 0.777777777777356
0.8888888888885582 0.2222222222218735 0 0.2222222222218735 0.8888888888885582
0.1111111111109822 0.1111111111114996 0 0.1111111111114996 0.1111111111109822
0.2222222222218735 0.1111111111114257 0 0.1111111111114257 0.2222222222218735
0.3333333333327477 0.1111111111113518 0 0.1111111111113518 0.3333333333327477
0.4444444444436219 0.1111111111112779 0 0.1111111111112779 0.4444444444436219
0.5555555555547019 0.1111111111112039 0 0.1111111111112039 0.5555555555547019
0.666666666665988 0.11111111111113 0 0.11111111111113 0.666666666665988
0.7777777777772739 0.1111111111110561 0 0.1111111111110561 0.7777777777772739
0.8888888888885771 0.1111111111109822 0 0.1111111111109822 0.8888888888885771
0.05555555555578678 0.944444444444213 0 0.944444444444213 0.05555555555578678
0.05555555555574981 0.8888888888884356 0 0.8888888888884356 0.05555555555574981
0.1111111111115366 0.9444444444442226 0 0.9444444444442226 0.1111111111115366
0.1666666666673234 0.9444444444442226 0 0.9444444444442226 0.1666666666673234
0.1666666666672438 0.8888888888884545 0 0.8888888888884545 0.1666666666672438
0.2222222222230675 0.9444444444442319 0 0.9444444444442319 0.2222222222230675
0.2777777777788543 0.9444444444442319 0 0.9444444444442319 0.2777777777788543
0.277777777778731 0.8888888888884732 0 0.8888888888884732 0.277777777778731
0.3333333333345974 0.9444444444442412 0 0.9444444444442412 0.3333333333345974
0.3888888888903842 0.9444444444442412 0 0.9444444444442412 0.3888888888903842
0.3888888888902172 0.888888888888492 0 0.888888888888492 0.3888888888902172
0.4444444444461272 0.9444444444442508 0 0.9444444444442508 0.4444444444461272
0.5000000000016058 0.9444444444442508 0 0.9444444444442508 0.5000000000016058
0.5000000000014464 0.8888888888885111 0 0.8888888888885111 0.5000000000014464
0.5555555555570919 0.9444444444442603 0 0.9444444444442603 0.5555555555570919
0.6111111111122622 0.9444444444442603 0 0.9444444444442603 0.6111111111122622
0.6111111111121619 0.8888888888885299 0 0.8888888888885299 0.6111111111121619
0.6666666666674915 0.9444444444442697 0 0.9444444444442697 0.6666666666674915
0.7222222222226616 0.9444444444442697 0 0.9444444444442697 0.7222222222226616
0.7222222222226204 0.8888888888885489 0 0.8888888888885489 0.7222222222226204
0.7777777777778908 0.9444444444442792 0 0.9444444444442792 0.7777777777778908
0.8333333333331379 0.9444444444442792 0 0.9444444444442792 0.8333333333331379
0.8333333333331473 0.8888888888885678 0 0.8888888888885678 0.8333333333331473
0.8888888888884356 0.9444444444442885 0 0.9444444444442885 0.8888888888884356
0.9444444444442225 0.9444444444442885 0 0.9444444444442885 0.9444444444442225
0.9444444444442225 0.8888888888885864 0 0.8888888888885864 0.9444444444442225
0.05555555555574981 0.8333333333331885 0 0.8333333333331885 0.05555555555574981
0.05555555555571286 0.7777777777778909 0 0.7777777777778909 0.05555555555571286
0.1111111111114627 0.8333333333331474 0 0.8333333333331474 0.1111111111114627
0.1666666666672068 0.8333333333331568 0 0.8333333333331568 0.1666666666672068
0.1666666666671272 0.7777777777778085 0 0.7777777777778085 0.1666666666671272
0.2222222222229083 0.8333333333331157 0 0.8333333333331157 0.2222222222229083
0.2777777777786514 0.833333333333125 0 0.833333333333125 0.2777777777786514
0.2777777777785281 0.7777777777777263 0 0.7777777777777263 0.2777777777785281
0.3333333333343508 0.8333333333330838 0 0.8333333333330838 0.3333333333343508
0.3888888888900938 0.8333333333330935 0 0.8333333333330935 0.3888888888900938
0.3888888888899267 0.777777777777644 0 0.777777777777644 0.3888888888899267
0.4444444444457931 0.8333333333330524 0 0.8333333333330524 0.4444444444457931
0.5000000000012793 0.8333333333330617 0 0.8333333333330617 0.5000000000012793
0.5000000000011201 0.7777777777775617 0 0.7777777777775617 0.5000000000011201
0.5555555555567734 0.8333333333330206 0 0.8333333333330206 0.5555555555567734
0.6111111111120027 0.8333333333330299 0 0.8333333333330299 0.6111111111120027
0.6111111111119025 0.7777777777774795 0 0.7777777777774795 0.6111111111119025
0.6666666666672911 0.8333333333329889 0 0.8333333333329889 0.6666666666672911
0.7222222222225203 0.8333333333329984 0 0.8333333333329984 0.7222222222225203
0.7222222222224792 0.7777777777773973 0 0.7777777777773973 0.7222222222224792
0.7777777777778085 0.8333333333329573 0 0.8333333333329573 0.7777777777778085
0.8333333333331062 0.8333333333329667 0 0.8333333333329667 0.8333333333331062
0.8333333333331158 0.777777777777315 0 0.777777777777315 0.8333333333331158
0.8888888888884545 0.8333333333329254 0 0.8333333333329254 0.8888888888884545
0.944444444444232 0.8333333333329349 0 0.8333333333329349 0.944444444444232
0.944444444444232 0.7777777777772328 0 0.7777777777772328 0.944444444444232
0.05555555555571286 0.7222222222227208 0 0.7222222222227208 0.05555555555571286
0.0555555555556759 0.6666666666674915 0 0.6666666666674915 0.0555555555556759
0.1111111111113888 0.7222222222226204 0 0.7222222222226204 0.1111111111113888
0.1666666666670903 0.7222222222225794 0 0.7222222222225794 0.1666666666670903
0.1666666666670107 0.666666666667291 0 0.666666666667291 0.1666666666670107
0.2222222222227491 0.7222222222224791 0 0.7222222222224791 0.2222222222227491
0.2777777777784485 0.7222222222224379 0 0.7222222222224379 0.2777777777784485
0.2777777777783252 0.6666666666670906 0 0.6666666666670906 0.2777777777783252
0.3333333333341041 0.7222222222223378 0 0.7222222222223378 0.3333333333341041
0.3888888888898035 0.7222222222222967 0 0.7222222222222967 0.3888888888898035
0.3888888888896366 0.6666666666668902 0 0.6666666666668902 0.3888888888896366
0.4444444444454592 0.7222222222221965 0 0.7222222222221965 0.4444444444454592
0.5000000000009532 0.7222222222221553 0 0.7222222222221553 0.5000000000009532
0.5000000000007938 0.6666666666666896 0 0.6666666666666896 0.5000000000007938
0.5555555555564547 0.7222222222220549 0 0.7222222222220549 0.5555555555564547
0.6111111111117431 0.7222222222220138 0 0.7222222222220138 0.6111111111117431
0.6111111111116427 0.6666666666664891 0 0.6666666666664891 0.6111111111116427
0.6666666666670906 0.7222222222219137 0 0.7222222222219137 0.6666666666670906
0.7222222222223789 0.7222222222218726 0 0.7222222222218726 0.7222222222223789
0.7222222222223378 0.6666666666662886 0 0.6666666666662886 0.7222222222223378
0.7777777777777264 0.7222222222217722 0 0.7222222222217722 0.7777777777777264
0.8333333333330747 0.722222222221731 0 0.722222222221731 0.8333333333330747
0.833333333333084 0.6666666666660881 0 0.6666666666660881 0.833333333333084
0.8888888888884734 0.7222222222216309 0 0.7222222222216309 0.8888888888884734
0.9444444444442414 0.7222222222215897 0 0.7222222222215897 0.9444444444442414
0.9444444444442414 0.6666666666658877 0 0.6666666666658877 0.9444444444442414
0.0555555555556759 0.6111111111123213 0 0.6111111111123213 0.0555555555556759
0.05555555555563893 0.555555555557092 0 0.555555555557092 0.05555555555563893
0.1111111111113148 0.611111111112162 0 0.611111111112162 0.1111111111113148
0.1666666666669737 0.6111111111120617 0 0.6111111111120617 0.1666666666669737
0.1666666666668941 0.5555555555567734 0 0.5555555555567734 0.1666666666668941
0.2222222222225899 0.6111111111119024 0 0.6111111111119024 0.2222222222225899
0.2777777777782456 0.6111111111118023 0 0.6111111111118023 0.2777777777782456
0.2777777777781222 0.5555555555564547 0 0.5555555555564547 0.2777777777781222
0.3333333333338575 0.611111111111643 0 0.611111111111643 0.3333333333338575
0.3888888888895132 0.6111111111115427 0 0.6111111111115427 0.3888888888895132
0.3888888888893461 0.555555555556136 0 0.555555555556136 0.3888888888893461
0.4444444444451252 0.6111111111113833 0 0.6111111111113833 0.4444444444451252
0.5000000000006267 0.6111111111112829 0 0.6111111111112829 0.5000000000006267
0.5000000000004674 0.5555555555558173 0 0.5555555555558173 0.5000000000004674
0.555555555556136 0.6111111111111236 0 0.6111111111111236 0.555555555556136
0.6111111111114834 0.6111111111110235 0 0.6111111111110235 0.6111111111114834
0.6111111111113833 0.5555555555554986 0 0.5555555555554986 0.6111111111113833
0.6666666666668901 0.6111111111108641 0 0.6111111111108641 0.6666666666668901
0.7222222222222376 0.6111111111107638 0 0.6111111111107638 0.7222222222222376
0.7222222222221965 0.55555555555518 0 0.55555555555518 0.7222222222221965
0.7777777777776441 0.6111111111106045 0 0.6111111111106045 0.7777777777776441
0.8333333333330428 0.6111111111105043 0 0.6111111111105043 0.8333333333330428
0.8333333333330523 0.5555555555548614 0 0.5555555555548614 0.8333333333330523
0.8888888888884922 0.611111111110345 0 0.611111111110345 0.8888888888884922
0.9444444444442508 0.6111111111102447 0 0.6111111111102447 0.9444444444442508
0.9444444444442508 0.5555555555545426 0 0.5555555555545426 0.9444444444442508
0.05555555555563893 0.5000000000016135 0 0.5000000000016135 0.05555555555563893
0.05555555555560196 0.4444444444461273 0 0.4444444444461273 0.05555555555560196
0.1111111111112409 0.5000000000014465 0 0.5000000000014465 0.1111111111112409
0.1666666666668571 0.5000000000012872 0 0.5000000000012872 0.1666666666668571
0.1666666666667775 0.4444444444457932 0 0.4444444444457932 0.1666666666667775
0.2222222222224307 0.5000000000011201 0 0.5000000000011201 0.2222222222224307
0.2777777777780426 0.5000000000009608 0 0.5000000000009608 0.2777777777780426
0.2777777777779193 0.4444444444454592 0 0.4444444444454592 0.2777777777779193
0.3333333333336108 0.5000000000007938 0 0.5000000000007938 0.3333333333336108
0.3888888888892228 0.5000000000006344 0 0.5000000000006344 0.3888888888892228
0.3888888888890558 0.4444444444451251 0 0.4444444444451251 0.3888888888890558
0.4444444444447911 0.5000000000004673 0 0.5000000000004673 0.4444444444447911
0.5000000000003003 0.500000000000308 0 0.500000000000308 0.5000000000003003
0.500000000000141 0.444444444444791 0 0.444444444444791 0.500000000000141
0.5555555555558174 0.500000000000141 0 0.500000000000141 0.5555555555558174
0.611111111111224 0.4999999999999817 0 0.4999999999999817 0.611111111111224
0.6111111111111236 0.444444444444457 0 0.444444444444457 0.6111111111111236
0.6666666666666896 0.4999999999998146 0 0.4999999999998146 0.6666666666666896
0.7222222222220961 0.4999999999996553 0 0.4999999999996553 0.7222222222220961
0.7222222222220549 0.444444444444123 0 0.444444444444123 0.7222222222220549
0.7777777777775617 0.4999999999994883 0 0.4999999999994883 0.7777777777775617
0.8333333333330111 0.499999999999329 0 0.499999999999329 0.8333333333330111
0.8333333333330205 0.4444444444437889 0 0.4444444444437889 0.8333333333330205
0.888888888888511 0.499999999999162 0 0.499999999999162 0.888888888888511
0.9444444444442602 0.4999999999990026 0 0.4999999999990026 0.9444444444442602
0.9444444444442602 0.4444444444434549 0 0.4444444444434549 0.9444444444442602
0.05555555555560196 0.3888888888903405 0 0.3888888888903405 0.05555555555560196
0.055555555555565 0.3333333333345974 0 0.3333333333345974 0.055555555555565
0.111111111111167 0.3888888888902171 0 0.3888888888902171 0.111111111111167
0.1666666666667406 0.38888888889005 0 0.38888888889005 0.1666666666667406
0.166666666666661 0.3333333333343507 0 0.3333333333343507 0.166666666666661
0.2222222222222715 0.3888888888899268 0 0.3888888888899268 0.2222222222222715
0.2777777777778397 0.3888888888897598 0 0.3888888888897598 0.2777777777778397
0.2777777777777164 0.3333333333341041 0 0.3333333333341041 0.2777777777777164
0.3333333333333642 0.3888888888896365 0 0.3888888888896365 0.3333333333333642
0.3888888888889325 0.3888888888894694 0 0.3888888888894694 0.3888888888889325
0.3888888888887655 0.3333333333338575 0 0.3333333333338575 0.3888888888887655
0.444444444444457 0.3888888888893461 0 0.3888888888893461 0.444444444444457
0.499999999999974 0.3888888888891791 0 0.3888888888891791 0.499999999999974
0.4999999999998146 0.3333333333336109 0 0.3333333333336109 0.4999999999998146
0.5555555555554986 0.3888888888890558 0 0.3888888888890558 0.5555555555554986
0.6111111111109642 0.3888888888888888 0 0.3888888888888888 0.6111111111109642
0.611111111110864 0.3333333333333642 0 0.3333333333333642 0.611111111110864
0.6666666666664891 0.3888888888887654 0 0.3888888888887654 0.6666666666664891
0.7222222222219548 0.3888888888885984 0 0.3888888888885984 0.7222222222219548
0.7222222222219137 0.3333333333331175 0 0.3333333333331175 0.7222222222219137
0.7777777777774795 0.3888888888884751 0 0.3888888888884751 0.7777777777774795
0.8333333333329794 0.3888888888883081 0 0.3888888888883081 0.8333333333329794
0.8333333333329889 0.333333333332871 0 0.333333333332871 0.8333333333329889
0.8888888888885299 0.3888888888881848 0 0.3888888888881848 0.8888888888885299
0.9444444444442697 0.3888888888880178 0 0.3888888888880178 0.9444444444442697
0.9444444444442697 0.3333333333326244 0 0.3333333333326244 0.9444444444442697
0.055555555555565 0.2777777777788105 0 0.2777777777788105 0.055555555555565
0.05555555555552805 0.2222222222230676 0 0.2222222222230676 0.05555555555552805
0.111111111111093 0.277777777778731 0 0.277777777778731 0.111111111111093
0.166666666666624 0.2777777777786077 0 0.2777777777786077 0.166666666666624
0.1666666666665444 0.2222222222229083 0 0.2222222222229083 0.1666666666665444
0.2222222222221123 0.2777777777785281 0 0.2777777777785281 0.2222222222221123
0.2777777777776368 0.2777777777784047 0 0.2777777777784047 0.2777777777776368
0.2777777777775136 0.2222222222227491 0 0.2222222222227491 0.2777777777775136
0.3333333333331177 0.2777777777783252 0 0.2777777777783252 0.3333333333331177
0.3888888888886421 0.2777777777782018 0 0.2777777777782018 0.3888888888886421
0.3888888888884752 0.2222222222225899 0 0.2222222222225899 0.3888888888884752
0.444444444444123 0.2777777777781222 0 0.2777777777781222 0.444444444444123
0.4999999999996476 0.2777777777779989 0 0.2777777777779989 0.4999999999996476
0.4999999999994884 0.2222222222224307 0 0.2222222222224307 0.4999999999994884
0.55555555555518 0.2777777777779193 0 0.2777777777779193 0.55555555555518
0.6111111111107048 0.277777777777796 0 0.277777777777796 0.6111111111107048
0.6111111111106047 0.2222222222222715 0 0.2222222222222715 0.6111111111106047
0.6666666666662887 0.2777777777777164 0 0.2777777777777164 0.6666666666662887
0.7222222222218134 0.277777777777593 0 0.277777777777593 0.7222222222218134
0.7222222222217722 0.2222222222221123 0 0.2222222222221123 0.7222222222217722
0.7777777777773972 0.2777777777775134 0 0.2777777777775134 0.7777777777773972
0.8333333333329477 0.2777777777773902 0 0.2777777777773902 0.8333333333329477
0.8333333333329571 0.2222222222219531 0 0.2222222222219531 0.8333333333329571
0.8888888888885488 0.2777777777773106 0 0.2777777777773106 0.8888888888885488
0.9444444444442791 0.2777777777771873 0 0.2777777777771873 0.9444444444442791
0.9444444444442791 0.2222222222217939 0 0.2222222222217939 0.9444444444442791
0.05555555555552805 0.1666666666672808 0 0.1666666666672808 0.05555555555552805
0.05555555555549108 0.1111111111115366 0 0.1111111111115366 0.05555555555549108
0.1111111111110191 0.1666666666672438 0 0.1666666666672438 0.1111111111110191
0.1666666666665074 0.1666666666671641 0 0.1666666666671641 0.1666666666665074
0.1666666666664278 0.1111111111114627 0 0.1111111111114627 0.1666666666664278
0.2222222222219531 0.1666666666671272 0 0.1666666666671272 0.2222222222219531
0.277777777777434 0.1666666666670476 0 0.1666666666670476 0.277777777777434
0.2777777777773106 0.1111111111113887 0 0.1111111111113887 0.2777777777773106
0.3333333333328711 0.1666666666670107 0 0.1666666666670107 0.3333333333328711
0.3888888888883518 0.1666666666669311 0 0.1666666666669311 0.3888888888883518
0.3888888888881848 0.1111111111113148 0 0.1111111111113148 0.3888888888881848
0.4444444444437889 0.1666666666668941 0 0.1666666666668941 0.4444444444437889
0.4999999999993213 0.1666666666668145 0 0.1666666666668145 0.4999999999993213
0.4999999999991619 0.1111111111112409 0 0.1111111111112409 0.4999999999991619
0.5555555555548614 0.1666666666667775 0 0.1666666666667775 0.5555555555548614
0.6111111111104452 0.1666666666666979 0 0.1666666666666979 0.6111111111104452
0.6111111111103449 0.111111111111167 0 0.111111111111167 0.6111111111103449
0.6666666666660882 0.166666666666661 0 0.166666666666661 0.6666666666660882
0.722222222221672 0.1666666666665814 0 0.1666666666665814 0.722222222221672
0.7222222222216309 0.111111111111093 0 0.111111111111093 0.7222222222216309
0.7777777777773149 0.1666666666665444 0 0.1666666666665444 0.7777777777773149
0.833333333332916 0.1666666666664648 0 0.1666666666664648 0.833333333332916
0.8333333333329255 0.1111111111110191 0 0.1111111111110191 0.8333333333329255
0.8888888888885677 0.1666666666664278 0 0.1666666666664278 0.8888888888885677
0.9444444444442885 0.1666666666663482 0 0.1666666666663482 0.9444444444442885
0.9444444444442885 0.1111111111109452 0 0.1111111111109452 0.9444444444442885
0.05555555555549108 0.05555555555574982 0 0.05555555555574982 0.05555555555549108
0.1111111111109452 0.05555555555574982 0 0.05555555555574982 0.1111111111109452
0.1666666666663909 0.05555555555571284 0 0.05555555555571284 0.1666666666663909
0.2222222222217939 0.05555555555571284 0 0.05555555555571284 0.2222222222217939
0.277777777777231 0.0555555555556759 0 0.0555555555556759 0.277777777777231
0.3333333333326244 0.0555555555556759 0 0.0555555555556759 0.3333333333326244
0.3888888888880614 0.05555555555563893 0 0.05555555555563893 0.3888888888880614
0.4444444444434549 0.05555555555563893 0 0.05555555555563893 0.4444444444434549
0.4999999999989949 0.05555555555560197 0 0.05555555555560197 0.4999999999989949
0.5555555555545426 0.05555555555560197 0 0.05555555555560197 0.5555555555545426
0.6111111111101857 0.055555555555565 0 0.055555555555565 0.6111111111101857
0.6666666666658877 0.055555555555565 0 0.055555555555565 0.6666666666658877
0.7222222222215307 0.05555555555552805 0 0.05555555555552805 0.7222222222215307
0.7777777777772328 0.05555555555552805 0 0.05555555555552805 0.7777777777772328
0.8333333333328843 0.05555555555549108 0 0.05555555555549108 0.8333333333328843
0.8888888888885864 0.05555555555549108 0 0.05555555555549108 0.8888888888885864
0.9444444444442979 0.05555555555545411 0 0.05555555555545411 0.9444444444442979
2 2 1 289
415
416
417
418
419
420
421
422
423
424
425
426
427
428
429
430
431
432
433
434
435
436
437
438
439
440
441
442
443
444
445
446
447
448
449
450
451
452
453
454
455
456
457
458
459
460
461
462
463
464
465
466
467
468
469
470
471
472
473
474
475
476
477
478
479
480
481
482
483
484
485
486
487
488
489
490
491
492
493
494
495
496
497
498
499
500
501
502
503
504
505
506
507
508
509
510
511
512
513
514
515
516
517
518
519
520
521
522
523
524
525
526
527
528
529
530
531
532
533
534
535
536
537
538
539
540
541
542
543
544
545
546
547
548
549
550
551
552
553
554
555
556
557
558
559
560
561
562
563
564
565
566
567
568
569
570
571
572
573
574
575
576
577
578
579
580
581
582
583
584
585
586
587
588
589
590
591
592
593
594
595
596
597
598
599
600
601
602
603
604
605
606
607
608
609
610
611
612
613
614
615
616
617
618
619
620
621
622
623
624
625
626
627
628
629
630
631
632
633
634
635
636
637
638
639
640
641
642
643
644
645
646
647
648
649
650
651
652
653
654
655
656
657
658
659
660
661
662
663
664
665
666
667
668
669
670
671
672
673
674
675
676
677
678
679
680
681
682
683
684
685
686
687
688
689
690
691
692
693
694
695
696
697
698
699
700
701
702
703
0.1111111111114996 1.111111111111111 0 -1.111111111111111 0.1111111111114996
0.2222222222229879 1.111111111111111 0 -1.111111111111111 0.2222222222229879
0.3333333333344741 1.111111111111111 0 -1.111111111111111 0.3333333333344741
0.4444444444459602 1.111111111111111 0 -1.111111111111111 0.4444444444459602
0.5555555555569326 1.111111111111111 0 -1.111111111111111 0.5555555555569326
0.6666666666673913 1.111111111111111 0 -1.111111111111111 0.6666666666673913
0.7777777777778496 1.111111111111111 0 -1.111111111111111 0.7777777777778496
0.888888888888445 1.111111111111111 0 -1.111111111111111 0.888888888888445
0.1111111111114257 1.222222222222222 0 -1.222222222222222 0.1111111111114257
0.2222222222228287 1.222222222222222 0 -1.222222222222222 0.2222222222228287
0.3333333333342274 1.222222222222222 0 -1.222222222222222 0.3333333333342274
0.4444444444456261 1.222222222222222 0 -1.222222222222222 0.4444444444456261
0.555555555556614 1.222222222222222 0 -1.222222222222222 0.555555555556614
0.666666666667191 1.222222222222222 0 -1.222222222222222 0.666666666667191
0.7777777777777675 1.222222222222222 0 -1.222222222222222 0.7777777777777675
0.8888888888884638 1.222222222222222 0 -1.222222222222222 0.8888888888884638
0.1111111111113518 1.333333333333333 0 -1.333333333333333 0.1111111111113518
0.2222222222226695 1.333333333333333 0 -1.333333333333333 0.2222222222226695
0.3333333333339809 1.333333333333333 0 -1.333333333333333 0.3333333333339809
0.4444444444452922 1.333333333333333 0 -1.333333333333333 0.4444444444452922
0.5555555555562953 1.333333333333333 0 -1.333333333333333 0.5555555555562953
0.6666666666669903 1.333333333333333 0 -1.333333333333333 0.6666666666669903
0.7777777777776853 1.333333333333334 0 -1.333333333333334 0.7777777777776853
0.8888888888884827 1.333333333333333 0 -1.333333333333333 0.8888888888884827
0.1111111111112779 1.444444444444444 0 -1.444444444444444 0.1111111111112779
0.2222222222225103 1.444444444444444 0 -1.444444444444444 0.2222222222225103
0.3333333333337342 1.444444444444444 0 -1.444444444444444 0.3333333333337342
0.4444444444449581 1.444444444444445 0 -1.444444444444445 0.4444444444449581
0.5555555555559767 1.444444444444444 0 -1.444444444444444 0.5555555555559767
0.66666666666679 1.444444444444444 0 -1.444444444444444 0.66666666666679
0.7777777777776029 1.444444444444444 0 -1.444444444444444 0.7777777777776029
0.8888888888885016 1.444444444444444 0 -1.444444444444444 0.8888888888885016
0.1111111111112039 1.555555555555555 0 -1.555555555555555 0.1111111111112039
0.2222222222223511 1.555555555555556 0 -1.555555555555556 0.2222222222223511
0.3333333333334875 1.555555555555555 0 -1.555555555555555 0.3333333333334875
0.4444444444446241 1.555555555555555 0 -1.555555555555555 0.4444444444446241
0.5555555555556581 1.555555555555556 0 -1.555555555555556 0.5555555555556581
0.6666666666665892 1.555555555555556 0 -1.555555555555556 0.6666666666665892
0.7777777777775206 1.555555555555556 0 -1.555555555555556 0.7777777777775206
0.8888888888885205 1.555555555555556 0 -1.555555555555556 0.8888888888885205
0.11111111111113 1.666666666666667 0 -1.666666666666667 0.11111111111113
0.2222222222221919 1.666666666666667 0 -1.666666666666667 0.2222222222221919
0.3333333333332409 1.666666666666667 0 -1.666666666666667 0.3333333333332409
0.44444444444429 1.666666666666667 0 -1.666666666666667 0.44444444444429
0.5555555555553392 1.666666666666666 0 -1.666666666666666 0.5555555555553392
0.666666666666389 1.666666666666667 0 -1.666666666666667 0.666666666666389
0.7777777777774384 1.666666666666667 0 -1.666666666666667 0.7777777777774384
0.8888888888885393 1.666666666666666 0 -1.666666666666666 0.8888888888885393
0.1111111111110561 1.777777777777777 0 -1.777777777777777 0.1111111111110561
0.2222222222220327 1.777777777777778 0 -1.777777777777778 0.2222222222220327
0.3333333333329944 1.777777777777778 0 -1.777777777777778 0.3333333333329944
0.4444444444439559 1.777777777777778 0 -1.777777777777778 0.4444444444439559
0.5555555555550208 1.777777777777778 0 -1.777777777777778 0.5555555555550208
0.6666666666661882 1.777777777777778 0 -1.777777777777778 0.6666666666661882
0.7777777777773562 1.777777777777778 0 -1.777777777777778 0.7777777777773562
0.8888888888885582 1.777777777777778 0 -1.777777777777778 0.8888888888885582
0.1111111111109822 1.888888888888889 0 -1.888888888888889 0.1111111111109822
0.2222222222218735 1.888888888888889 0 -1.888888888888889 0.2222222222218735
0.3333333333327477 1.888888888888889 0 -1.888888888888889 0.3333333333327477
0.444444444443622 1.888888888888889 0 -1.888888888888889 0.444444444443622
0.5555555555547019 1.888888888888889 0 -1.888888888888889 0.5555555555547019
0.666666666665988 1.888888888888889 0 -1.888888888888889 0.666666666665988
0.7777777777772739 1.888888888888889 0 -1.888888888888889 0.7777777777772739
0.8888888888885769 1.888888888888889 0 -1.888888888888889 0.8888888888885769
0.05555555555578678 1.055555555555556 0 -1.055555555555556 0.05555555555578678
0.05555555555574981 1.111111111111111 0 -1.111111111111111 0.05555555555574981
0.1111111111115366 1.055555555555556 0 -1.055555555555556 0.1111111111115366
0.1666666666673234 1.055555555555556 0 -1.055555555555556 0.1666666666673234
0.1666666666672438 1.111111111111111 0 -1.111111111111111 0.1666666666672438
0.2222222222230675 1.055555555555555 0 -1.055555555555555 0.2222222222230675
0.2777777777788543 1.055555555555555 0 -1.055555555555555 0.2777777777788543
0.277777777778731 1.111111111111111 0 -1.111111111111111 0.277777777778731
0.3333333333345974 1.055555555555556 0 -1.055555555555556 0.3333333333345974
0.3888888888903842 1.055555555555556 0 -1.055555555555556 0.3888888888903842
0.3888888888902171 1.111111111111111 0 -1.111111111111111 0.3888888888902171
0.4444444444461272 1.055555555555556 0 -1.055555555555556 0.4444444444461272
0.5000000000016058 1.055555555555556 0 -1.055555555555556 0.5000000000016058
0.5000000000014464 1.111111111111111 0 -1.111111111111111 0.5000000000014464
0.5555555555570919 1.055555555555556 0 -1.055555555555556 0.5555555555570919
0.6111111111122622 1.055555555555556 0 -1.055555555555556 0.6111111111122622
0.6111111111121619 1.111111111111111 0 -1.111111111111111 0.6111111111121619
0.6666666666674915 1.055555555555556 0 -1.055555555555556 0.6666666666674915
0.7222222222226616 1.055555555555556 0 -1.055555555555556 0.7222222222226616
0.7222222222226204 1.111111111111111 0 -1.111111111111111 0.7222222222226204
0.7777777777778908 1.055555555555556 0 -1.055555555555556 0.7777777777778908
0.8333333333331379 1.055555555555556 0 -1.055555555555556 0.8333333333331379
0.8333333333331473 1.111111111111111 0 -1.111111111111111 0.8333333333331473
0.8888888888884356 1.055555555555556 0 -1.055555555555556 0.8888888888884356
0.9444444444442225 1.055555555555556 0 -1.055555555555556 0.9444444444442225
0.9444444444442225 1.111111111111111 0 -1.111111111111111 0.9444444444442225
0.05555555555574981 1.166666666666667 0 -1.166666666666667 0.05555555555574981
0.05555555555571286 1.222222222222222 0 -1.222222222222222 0.05555555555571286
0.1111111111114627 1.166666666666667 0 -1.166666666666667 0.1111111111114627
0.1666666666672068 1.166666666666667 0 -1.166666666666667 0.1666666666672068
0.1666666666671272 1.222222222222222 0 -1.222222222222222 0.1666666666671272
0.2222222222229083 1.166666666666667 0 -1.166666666666667 0.2222222222229083
0.2777777777786514 1.166666666666667 0 -1.166666666666667 0.2777777777786514
0.2777777777785281 1.222222222222222 0 -1.222222222222222 0.2777777777785281
0.3333333333343507 1.166666666666667 0 -1.166666666666667 0.3333333333343507
0.3888888888900938 1.166666666666667 0 -1.166666666666667 0.3888888888900938
0.3888888888899268 1.222222222222222 0 -1.222222222222222 0.3888888888899268
0.4444444444457932 1.166666666666667 0 -1.166666666666667 0.4444444444457932
0.5000000000012794 1.166666666666667 0 -1.166666666666667 0.5000000000012794
0.50000000000112 1.222222222222222 0 -1.222222222222222 0.50000000000112
0.5555555555567733 1.166666666666667 0 -1.166666666666667 0.5555555555567733
0.6111111111120027 1.166666666666667 0 -1.166666666666667 0.6111111111120027
0.6111111111119025 1.222222222222222 0 -1.222222222222222 0.6111111111119025
0.6666666666672911 1.166666666666667 0 -1.166666666666667 0.6666666666672911
0.7222222222225203 1.166666666666667 0 -1.166666666666667 0.7222222222225203
0.7222222222224792 1.222222222222222 0 -1.222222222222222 0.7222222222224792
0.7777777777778085 1.166666666666667 0 -1.166666666666667 0.7777777777778085
0.8333333333331062 1.166666666666667 0 -1.166666666666667 0.8333333333331062
0.8333333333331157 1.222222222222222 0 -1.222222222222222 0.8333333333331157
0.8888888888884544 1.166666666666667 0 -1.166666666666667 0.8888888888884544
0.9444444444442319 1.166666666666667 0 -1.166666666666667 0.9444444444442319
0.9444444444442319 1.222222222222222 0 -1.222222222222222 0.9444444444442319
0.05555555555571286 1.277777777777778 0 -1.277777777777778 0.05555555555571286
0.0555555555556759 1.333333333333333 0 -1.333333333333333 0.0555555555556759
0.1111111111113888 1.277777777777778 0 -1.277777777777778 0.1111111111113888
0.1666666666670903 1.277777777777778 0 -1.277777777777778 0.1666666666670903
0.1666666666670107 1.333333333333333 0 -1.333333333333333 0.1666666666670107
0.2222222222227491 1.277777777777778 0 -1.277777777777778 0.2222222222227491
0.2777777777784485 1.277777777777778 0 -1.277777777777778 0.2777777777784485
0.2777777777783252 1.333333333333333 0 -1.333333333333333 0.2777777777783252
0.3333333333341041 1.277777777777778 0 -1.277777777777778 0.3333333333341041
0.3888888888898036 1.277777777777778 0 -1.277777777777778 0.3888888888898036
0.3888888888896366 1.333333333333333 0 -1.333333333333333 0.3888888888896366
0.4444444444454592 1.277777777777778 0 -1.277777777777778 0.4444444444454592
0.500000000000953 1.277777777777778 0 -1.277777777777778 0.500000000000953
0.5000000000007938 1.333333333333333 0 -1.333333333333333 0.5000000000007938
0.5555555555564546 1.277777777777778 0 -1.277777777777778 0.5555555555564546
0.6111111111117431 1.277777777777778 0 -1.277777777777778 0.6111111111117431
0.6111111111116427 1.333333333333333 0 -1.333333333333333 0.6111111111116427
0.6666666666670906 1.277777777777778 0 -1.277777777777778 0.6666666666670906
0.7222222222223789 1.277777777777778 0 -1.277777777777778 0.7222222222223789
0.7222222222223378 1.333333333333333 0 -1.333333333333333 0.7222222222223378
0.7777777777777264 1.277777777777778 0 -1.277777777777778 0.7777777777777264
0.8333333333330746 1.277777777777778 0 -1.277777777777778 0.8333333333330746
0.833333333333084 1.333333333333333 0 -1.333333333333333 0.833333333333084
0.8888888888884733 1.277777777777778 0 -1.277777777777778 0.8888888888884733
0.9444444444442414 1.277777777777778 0 -1.277777777777778 0.9444444444442414
0.9444444444442414 1.333333333333333 0 -1.333333333333333 0.9444444444442414
0.0555555555556759 1.388888888888889 0 -1.388888888888889 0.0555555555556759
0.05555555555563893 1.444444444444444 0 -1.444444444444444 0.05555555555563893
0.1111111111113148 1.388888888888889 0 -1.388888888888889 0.1111111111113148
0.1666666666669737 1.388888888888888 0 -1.388888888888888 0.1666666666669737
0.1666666666668941 1.444444444444444 0 -1.444444444444444 0.1666666666668941
0.2222222222225899 1.388888888888889 0 -1.388888888888889 0.2222222222225899
0.2777777777782456 1.388888888888889 0 -1.388888888888889 0.2777777777782456
0.2777777777781223 1.444444444444444 0 -1.444444444444444 0.2777777777781223
0.3333333333338576 1.388888888888889 0 -1.388888888888889 0.3333333333338576
0.3888888888895132 1.388888888888889 0 -1.388888888888889 0.3888888888895132
0.3888888888893461 1.444444444444445 0 -1.444444444444445 0.3888888888893461
0.4444444444451252 1.388888888888889 0 -1.388888888888889 0.4444444444451252
0.5000000000006267 1.388888888888889 0 -1.388888888888889 0.5000000000006267
0.5000000000004674 1.444444444444445 0 -1.444444444444445 0.5000000000004674
0.555555555556136 1.388888888888889 0 -1.388888888888889 0.555555555556136
0.6111111111114835 1.388888888888889 0 -1.388888888888889 0.6111111111114835
0.6111111111113834 1.444444444444444 0 -1.444444444444444 0.6111111111113834
0.6666666666668901 1.388888888888889 0 -1.388888888888889 0.6666666666668901
0.7222222222222376 1.388888888888889 0 -1.388888888888889 0.7222222222222376
0.7222222222221965 1.444444444444444 0 -1.444444444444444 0.7222222222221965
0.7777777777776441 1.388888888888889 0 -1.388888888888889 0.7777777777776441
0.8333333333330428 1.388888888888889 0 -1.388888888888889 0.8333333333330428
0.8333333333330523 1.444444444444444 0 -1.444444444444444 0.8333333333330523
0.8888888888884922 1.388888888888889 0 -1.388888888888889 0.8888888888884922
0.9444444444442508 1.388888888888889 0 -1.388888888888889 0.9444444444442508
0.9444444444442508 1.444444444444444 0 -1.444444444444444 0.9444444444442508
0.05555555555563893 1.5 0 -1.5 0.05555555555563893
0.05555555555560196 1.555555555555555 0 -1.555555555555555 0.05555555555560196
0.1111111111112409 1.5 0 -1.5 0.1111111111112409
0.1666666666668571 1.5 0 -1.5 0.1666666666668571
0.1666666666667775 1.555555555555556 0 -1.555555555555556 0.1666666666667775
0.2222222222224307 1.5 0 -1.5 0.2222222222224307
0.2777777777780427 1.5 0 -1.5 0.2777777777780427
0.2777777777779193 1.555555555555556 0 -1.555555555555556 0.2777777777779193
0.3333333333336109 1.5 0 -1.5 0.3333333333336109
0.3888888888892228 1.5 0 -1.5 0.3888888888892228
0.3888888888890558 1.555555555555555 0 -1.555555555555555 0.3888888888890558
0.4444444444447911 1.5 0 -1.5 0.4444444444447911
0.5000000000003004 1.5 0 -1.5 0.5000000000003004
0.500000000000141 1.555555555555555 0 -1.555555555555555 0.500000000000141
0.5555555555558174 1.5 0 -1.5 0.5555555555558174
0.611111111111224 1.5 0 -1.5 0.611111111111224
0.6111111111111236 1.555555555555556 0 -1.555555555555556 0.6111111111111236
0.6666666666666896 1.5 0 -1.5 0.6666666666666896
0.7222222222220961 1.5 0 -1.5 0.7222222222220961
0.7222222222220549 1.555555555555556 0 -1.555555555555556 0.7222222222220549
0.7777777777775617 1.5 0 -1.5 0.7777777777775617
0.8333333333330111 1.5 0 -1.5 0.8333333333330111
0.8333333333330205 1.555555555555556 0 -1.555555555555556 0.8333333333330205
0.888888888888511 1.5 0 -1.5 0.888888888888511
0.9444444444442602 1.5 0 -1.5 0.9444444444442602
0.9444444444442602 1.555555555555556 0 -1.555555555555556 0.9444444444442602
0.05555555555560196 1.611111111111111 0 -1.611111111111111 0.05555555555560196
0.055555555555565 1.666666666666667 0 -1.666666666666667 0.055555555555565
0.111111111111167 1.611111111111111 0 -1.611111111111111 0.111111111111167
0.1666666666667406 1.611111111111111 0 -1.611111111111111 0.1666666666667406
0.166666666666661 1.666666666666667 0 -1.666666666666667 0.166666666666661
0.2222222222222715 1.611111111111111 0 -1.611111111111111 0.2222222222222715
0.2777777777778397 1.611111111111111 0 -1.611111111111111 0.2777777777778397
0.2777777777777164 1.666666666666667 0 -1.666666666666667 0.2777777777777164
0.3333333333333642 1.611111111111111 0 -1.611111111111111 0.3333333333333642
0.3888888888889325 1.611111111111111 0 -1.611111111111111 0.3888888888889325
0.3888888888887655 1.666666666666667 0 -1.666666666666667 0.3888888888887655
0.444444444444457 1.611111111111111 0 -1.611111111111111 0.444444444444457
0.499999999999974 1.611111111111111 0 -1.611111111111111 0.499999999999974
0.4999999999998146 1.666666666666667 0 -1.666666666666667 0.4999999999998146
0.5555555555554986 1.611111111111111 0 -1.611111111111111 0.5555555555554986
0.6111111111109642 1.611111111111111 0 -1.611111111111111 0.6111111111109642
0.611111111110864 1.666666666666667 0 -1.666666666666667 0.611111111110864
0.6666666666664891 1.611111111111111 0 -1.611111111111111 0.6666666666664891
0.7222222222219548 1.611111111111111 0 -1.611111111111111 0.7222222222219548
0.7222222222219137 1.666666666666667 0 -1.666666666666667 0.7222222222219137
0.7777777777774795 1.611111111111111 0 -1.611111111111111 0.7777777777774795
0.8333333333329794 1.611111111111111 0 -1.611111111111111 0.8333333333329794
0.8333333333329889 1.666666666666667 0 -1.666666666666667 0.8333333333329889
0.8888888888885299 1.611111111111111 0 -1.611111111111111 0.8888888888885299
0.9444444444442697 1.611111111111111 0 -1.611111111111111 0.9444444444442697
0.9444444444442697 1.666666666666667 0 -1.666666666666667 0.9444444444442697
0.055555555555565 1.722222222222222 0 -1.722222222222222 0.055555555555565
0.05555555555552805 1.777777777777778 0 -1.777777777777778 0.05555555555552805
0.111111111111093 1.722222222222222 0 -1.722222222222222 0.111111111111093
0.166666666666624 1.722222222222222 0 -1.722222222222222 0.166666666666624
0.1666666666665444 1.777777777777778 0 -1.777777777777778 0.1666666666665444
0.2222222222221123 1.722222222222222 0 -1.722222222222222 0.2222222222221123
0.2777777777776368 1.722222222222222 0 -1.722222222222222 0.2777777777776368
0.2777777777775136 1.777777777777778 0 -1.777777777777778 0.2777777777775136
0.3333333333331177 1.722222222222222 0 -1.722222222222222 0.3333333333331177
0.3888888888886421 1.722222222222222 0 -1.722222222222222 0.3888888888886421
0.3888888888884752 1.777777777777778 0 -1.777777777777778 0.3888888888884752
0.444444444444123 1.722222222222222 0 -1.722222222222222 0.444444444444123
0.4999999999996476 1.722222222222222 0 -1.722222222222222 0.4999999999996476
0.4999999999994884 1.777777777777778 0 -1.777777777777778 0.4999999999994884
0.55555555555518 1.722222222222222 0 -1.722222222222222 0.55555555555518
0.6111111111107048 1.722222222222222 0 -1.722222222222222 0.6111111111107048
0.6111111111106045 1.777777777777778 0 -1.777777777777778 0.6111111111106045
0.6666666666662886 1.722222222222222 0 -1.722222222222222 0.6666666666662886
0.7222222222218133 1.722222222222222 0 -1.722222222222222 0.7222222222218133
0.7222222222217722 1.777777777777778 0 -1.777777777777778 0.7222222222217722
0.7777777777773973 1.722222222222222 0 -1.722222222222222 0.7777777777773973
0.8333333333329478 1.722222222222222 0 -1.722222222222222 0.8333333333329478
0.8333333333329572 1.777777777777778 0 -1.777777777777778 0.8333333333329572
0.8888888888885488 1.722222222222222 0 -1.722222222222222 0.8888888888885488
0.9444444444442791 1.722222222222222 0 -1.722222222222222 0.9444444444442791
0.9444444444442791 1.777777777777778 0 -1.777777777777778 0.9444444444442791
0.05555555555552805 1.833333333333333 0 -1.833333333333333 0.05555555555552805
0.05555555555549108 1.888888888888889 0 -1.888888888888889 0.05555555555549108
0.1111111111110191 1.833333333333333 0 -1.833333333333333 0.1111111111110191
0.1666666666665074 1.833333333333333 0 -1.833333333333333 0.1666666666665074
0.1666666666664278 1.888888888888889 0 -1.888888888888889 0.1666666666664278
0.2222222222219531 1.833333333333333 0 -1.833333333333333 0.2222222222219531
0.277777777777434 1.833333333333333 0 -1.833333333333333 0.277777777777434
0.2777777777773106 1.888888888888889 0 -1.888888888888889 0.2777777777773106
0.333333333332871 1.833333333333333 0 -1.833333333333333 0.333333333332871
0.3888888888883518 1.833333333333333 0 -1.833333333333333 0.3888888888883518
0.3888888888881848 1.888888888888889 0 -1.888888888888889 0.3888888888881848
0.4444444444437889 1.833333333333333 0 -1.833333333333333 0.4444444444437889
0.4999999999993214 1.833333333333333 0 -1.833333333333333 0.4999999999993214
0.4999999999991619 1.888888888888889 0 -1.888888888888889 0.4999999999991619
0.5555555555548614 1.833333333333333 0 -1.833333333333333 0.5555555555548614
0.611111111110445 1.833333333333333 0 -1.833333333333333 0.611111111110445
0.6111111111103449 1.888888888888889 0 -1.888888888888889 0.6111111111103449
0.6666666666660881 1.833333333333333 0 -1.833333333333333 0.6666666666660881
0.7222222222216721 1.833333333333333 0 -1.833333333333333 0.7222222222216721
0.7222222222216309 1.888888888888889 0 -1.888888888888889 0.7222222222216309
0.777777777777315 1.833333333333333 0 -1.833333333333333 0.777777777777315
0.833333333332916 1.833333333333333 0 -1.833333333333333 0.833333333332916
0.8333333333329254 1.888888888888889 0 -1.888888888888889 0.8333333333329254
0.8888888888885675 1.833333333333333 0 -1.833333333333333 0.8888888888885675
0.9444444444442884 1.833333333333333 0 -1.833333333333333 0.9444444444442884
0.9444444444442884 1.888888888888889 0 -1.888888888888889 0.9444444444442884
0.05555555555549108 1.944444444444444 0 -1.944444444444444 0.05555555555549108
0.1111111111109452 1.944444444444444 0 -1.944444444444444 0.1111111111109452
0.1666666666663909 1.944444444444444 0 -1.944444444444444 0.1666666666663909
0.2222222222217939 1.944444444444444 0 -1.944444444444444 0.2222222222217939
0.277777777777231 1.944444444444444 0 -1.944444444444444 0.277777777777231
0.3333333333326244 1.944444444444444 0 -1.944444444444444 0.3333333333326244
0.3888888888880615 1.944444444444444 0 -1.944444444444444 0.3888888888880615
0.4444444444434549 1.944444444444444 0 -1.944444444444444 0.4444444444434549
0.4999999999989949 1.944444444444444 0 -1.944444444444444 0.4999999999989949
0.5555555555545426 1.944444444444444 0 -1.944444444444444 0.5555555555545426
0.6111111111101857 1.944444444444444 0 -1.944444444444444 0.6111111111101857
0.6666666666658877 1.944444444444444 0 -1.944444444444444 0.6666666666658877
0.7222222222215307 1.944444444444445 0 -1.944444444444445 0.7222222222215307
0.7777777777772328 1.944444444444445 0 -1.944444444444445 0.7777777777772328
0.8333333333328843 1.944444444444444 0 -1.944444444444444 0.8333333333328843
0.8888888888885864 1.944444444444444 0 -1.944444444444444 0.8888888888885864
0.9444444444442979 1.944444444444444 0 -1.944444444444444 0.9444444444442979
$EndNodes
$Elements
15 393 1 393
0 1 15 1
379 1 
0 2 15 1
380 2 
0 3 15 1
381 3 
0 4 15 1
382 4 
0 5 15 1
383 5 
0 6 15 1
384 6 
1 1 8 9
1 1 7 15 
2 7 8 16 
3 8 9 17 
4 9 10 18 
5 10 11 19 
6 11 12 20 
7 12 13 21 
8 13 14 22 
9 14 2 23 
1 2 8 9
10 2 24 32 
11 24 25 33 
12 25 26 34 
13 26 27 35 
14 27 28 36 
15 28 29 37 
16 29 30 38 
17 30 31 39 
18 31 5 40 
1 3 8 9
385 5 41 49 
386 41 42 50 
387 42 43 51 
388 43 44 52 
389 44 45 53 
390 45 46 54 
391 46 47 55 
392 47 48 56 
393 48 6 57 
1 4 8 9
19 6 58 66 
20 58 59 67 
21 59 60 68 
22 60 61 69 
23 61 62 70 
24 62 63 71 
25 63 64 72 
26 64 65 73 
27 65 1 74 
1 5 8 9
28 6 75 83 
29 75 76 84 
30 76 77 85 
31 77 78 86 
32 78 79 87 
33 79 80 88 
34 80 81 89 
35 81 82 90 
36 82 4 91 
1 6 8 9
37 4 92 100 
38 92 93 101 
39 93 94 102 
40 94 95 103 
41 95 96 104 
42 96 97 105 
43 97 98 106 
44 98 99 107 
45 99 3 108 
1 7 8 9
46 3 109 117 
47 109 110 118 
48 110 111 119 
49 111 112 120 
50 112 113 121 
51 113 114 122 
52 114 115 123 
53 115 116 124 
54 116 5 125 
2 1 9 162
55 6 58 48 66 190 57 
56 48 58 126 190 191 192 
57 48 126 47 192 193 56 
58 47 126 127 193 194 195 
59 47 127 46 195 196 55 
60 46 127 128 196 197 198 
61 46 128 45 198 199 54 
62 45 128 129 199 200 201 
63 45 129 44 201 202 53 
64 44 129 130 202 203 204 
65 44 130 43 204 205 52 
66 43 130 131 205 206 207 
67 43 131 42 207 208 51 
68 42 131 132 208 209 210 
69 42 132 41 210 211 50 
70 41 132 133 211 212 213 
71 41 133 5 213 214 49 
72 5 133 31 214 215 40 
73 58 59 126 67 216 191 
74 126 59 134 216 217 218 
75 126 134 127 218 219 194 
76 127 134 135 219 220 221 
77 127 135 128 221 222 197 
78 128 135 136 222 223 224 
79 128 136 129 224 225 200 
80 129 136 137 225 226 227 
81 129 137 130 227 228 203 
82 130 137 138 228 229 230 
83 130 138 131 230 231 206 
84 131 138 139 231 232 233 
85 131 139 132 233 234 209 
86 132 139 140 234 235 236 
87 132 140 133 236 237 212 
88 133 140 141 237 238 239 
89 133 141 31 239 240 215 
90 31 141 30 240 241 39 
91 59 60 134 68 242 217 
92 134 60 142 242 243 244 
93 134 142 135 244 245 220 
94 135 142 143 245 246 247 
95 135 143 136 247 248 223 
96 136 143 144 248 249 250 
97 136 144 137 250 251 226 
98 137 144 145 251 252 253 
99 137 145 138 253 254 229 
100 138 145 146 254 255 256 
101 138 146 139 256 257 232 
102 139 146 147 257 258 259 
103 139 147 140 259 260 235 
104 140 147 148 260 261 262 
105 140 148 141 262 263 238 
106 141 148 149 263 264 265 
107 141 149 30 265 266 241 
108 30 149 29 266 267 38 
109 60 61 142 69 268 243 
110 142 61 150 268 269 270 
111 142 150 143 270 271 246 
112 143 150 151 271 272 273 
113 143 151 144 273 274 249 
114 144 151 152 274 275 276 
115 144 152 145 276 277 252 
116 145 152 153 277 278 279 
117 145 153 146 279 280 255 
118 146 153 154 280 281 282 
119 146 154 147 282 283 258 
120 147 154 155 283 284 285 
121 147 155 148 285 286 261 
122 148 155 156 286 287 288 
123 148 156 149 288 289 264 
124 149 156 157 289 290 291 
125 149 157 29 291 292 267 
126 29 157 28 292 293 37 
127 61 62 150 70 294 269 
128 150 62 158 294 295 296 
129 150 158 151 296 297 272 
130 151 158 159 297 298 299 
131 151 159 152 299 300 275 
132 152 159 160 300 301 302 
133 152 160 153 302 303 278 
134 153 160 161 303 304 305 
135 153 161 154 305 306 281 
136 154 161 162 306 307 308 
137 154 162 155 308 309 284 
138 155 162 163 309 310 311 
139 155 163 156 311 312 287 
140 156 163 164 312 313 314 
141 156 164 157 314 315 290 
142 157 164 165 315 316 317 
143 157 165 28 317 318 293 
144 28 165 27 318 319 36 
145 62 63 158 71 320 295 
146 158 63 166 320 321 322 
147 158 166 159 322 323 298 
148 159 166 167 323 324 325 
149 159 167 160 325 326 301 
150 160 167 168 326 327 328 
151 160 168 161 328 329 304 
152 161 168 169 329 330 331 
153 161 169 162 331 332 307 
154 162 169 170 332 333 334 
155 162 170 163 334 335 310 
156 163 170 171 335 336 337 
157 163 171 164 337 338 313 
158 164 171 172 338 339 340 
159 164 172 165 340 341 316 
160 165 172 173 341 342 343 
161 165 173 27 343 344 319 
162 27 173 26 344 345 35 
163 63 64 166 72 346 321 
164 166 64 174 346 347 348 
165 166 174 167 348 349 324 
166 167 174 175 349 350 351 
167 167 175 168 351 352 327 
168 168 175 176 352 353 354 
169 168 176 169 354 355 330 
170 169 176 177 355 356 357 
171 169 177 170 357 358 333 
172 170 177 178 358 359 360 
173 170 178 171 360 361 336 
174 171 178 179 361 362 363 
175 171 179 172 363 364 339 
176 172 179 180 364 365 366 
177 172 180 173 366 367 342 
178 173 180 181 367 368 369 
179 173 181 26 369 370 345 
180 26 181 25 370 371 34 
181 64 65 174 73 372 347 
182 174 65 182 372 373 374 
183 174 182 175 374 375 350 
184 175 182 183 375 376 377 
185 175 183 176 377 378 353 
186 176 183 184 378 379 380 
187 176 184 177 380 381 356 
188 177 184 185 381 382 383 
189 177 185 178 383 384 359 
190 178 185 186 384 385 386 
191 178 186 179 386 387 362 
192 179 186 187 387 388 389 
193 179 187 180 389 390 365 
194 180 187 188 390 391 392 
195 180 188 181 392 393 368 
196 181 188 189 393 394 395 
197 181 189 25 395 396 371 
198 25 189 24 396 397 33 
199 65 1 182 74 398 373 
200 182 1 7 398 15 399 
201 182 7 183 399 400 376 
202 183 7 8 400 16 401 
203 183 8 184 401 402 379 
204 184 8 9 402 17 403 
205 184 9 185 403 404 382 
206 185 9 10 404 18 405 
207 185 10 186 405 406 385 
208 186 10 11 406 19 407 
209 186 11 187 407 408 388 
210 187 11 12 408 20 409 
211 187 12 188 409 410 391 
212 188 12 13 410 21 411 
213 188 13 189 411 412 394 
214 189 13 14 412 22 413 
215 189 14 24 413 414 397 
216 24 14 2 414 23 32 
2 2 9 162
217 6 75 48 83 479 57 
218 48 75 415 479 480 481 
219 48 415 47 481 482 56 
220 47 415 416 482 483 484 
221 47 416 46 484 485 55 
222 46 416 417 485 486 487 
223 46 417 45 487 488 54 
224 45 417 418 488 489 490 
225 45 418 44 490 491 53 
226 44 418 419 491 492 493 
227 44 419 43 493 494 52 
228 43 419 420 494 495 496 
229 43 420 42 496 497 51 
230 42 420 421 497 498 499 
231 42 421 41 499 500 50 
232 41 421 422 500 501 502 
233 41 422 5 502 503 49 
234 5 422 116 503 504 125 
235 75 76 415 84 505 480 
236 415 76 423 505 506 507 
237 415 423 416 507 508 483 
238 416 423 424 508 509 510 
239 416 424 417 510 511 486 
240 417 424 425 511 512 513 
241 417 425 418 513 514 489 
242 418 425 426 514 515 516 
243 418 426 419 516 517 492 
244 419 426 427 517 518 519 
245 419 427 420 519 520 495 
246 420 427 428 520 521 522 
247 420 428 421 522 523 498 
248 421 428 429 523 524 525 
249 421 429 422 525 526 501 
250 422 429 430 526 527 528 
251 422 430 116 528 529 504 
252 116 430 115 529 530 124 
253 76 77 423 85 531 506 
254 423 77 431 531 532 533 
255 423 431 424 533 534 509 
256 424 431 432 534 535 536 
257 424 432 425 536 537 512 
258 425 432 433 537 538 539 
259 425 433 426 539 540 515 
260 426 433 434 540 541 542 
261 426 434 427 542 543 518 
262 427 434 435 543 544 545 
263 427 435 428 545 546 521 
264 428 435 436 546 547 548 
265 428 436 429 548 549 524 
266 429 436 437 549 550 551 
267 429 437 430 551 552 527 
268 430 437 438 552 553 554 
269 430 438 115 554 555 530 
270 115 438 114 555 556 123 
271 77 78 431 86 557 532 
272 431 78 439 557 558 559 
273 431 439 432 559 560 535 
274 432 439 440 560 561 562 
275 432 440 433 562 563 538 
276 433 440 441 563 564 565 
277 433 441 434 565 566 541 
278 434 441 442 566 567 568 
279 434 442 435 568 569 544 
280 435 442 443 569 570 571 
281 435 443 436 571 572 547 
282 436 443 444 572 573 574 
283 436 444 437 574 575 550 
284 437 444 445 575 576 577 
285 437 445 438 577 578 553 
286 438 445 446 578 579 580 
287 438 446 114 580 581 556 
288 114 446 113 581 582 122 
289 78 79 439 87 583 558 
290 439 79 447 583 584 585 
291 439 447 440 585 586 561 
292 440 447 448 586 587 588 
293 440 448 441 588 589 564 
294 441 448 449 589 590 591 
295 441 449 442 591 592 567 
296 442 449 450 592 593 594 
297 442 450 443 594 595 570 
298 443 450 451 595 596 597 
299 443 451 444 597 598 573 
300 444 451 452 598 599 600 
301 444 452 445 600 601 576 
302 445 452 453 601 602 603 
303 445 453 446 603 604 579 
304 446 453 454 604 605 606 
305 446 454 113 606 607 582 
306 113 454 112 607 608 121 
307 79 80 447 88 609 584 
308 447 80 455 609 610 611 
309 447 455 448 611 612 587 
310 448 455 456 612 613 614 
311 448 456 449 614 615 590 
312 449 456 457 615 616 617 
313 449 457 450 617 618 593 
314 450 457 458 618 619 620 
315 450 458 451 620 621 596 
316 451 458 459 621 622 623 
317 451 459 452 623 624 599 
318 452 459 460 624 625 626 
319 452 460 453 626 627 602 
320 453 460 461 627 628 629 
321 453 461 454 629 630 605 
322 454 461 462 630 631 632 
323 454 462 112 632 633 608 
324 112 462 111 633 634 120 
325 80 81 455 89 635 610 
326 455 81 463 635 636 637 
327 455 463 456 637 638 613 
328 456 463 464 638 639 640 
329 456 464 457 640 641 616 
330 457 464 465 641 642 643 
331 457 465 458 643 644 619 
332 458 465 466 644 645 646 
333 458 466 459 646 647 622 
334 459 466 467 647 648 649 
335 459 467 460 649 650 625 
336 460 467 468 650 651 652 
337 460 468 461 652 653 628 
338 461 468 469 653 654 655 
339 461 469 462 655 656 631 
340 462 469 470 656 657 658 
341 462 470 111 658 659 634 
342 111 470 110 659 660 119 
343 81 82 463 90 661 636 
344 463 82 471 661 662 663 
345 463 471 464 663 664 639 
346 464 471 472 664 665 666 
347 464 472 465 666 667 642 
348 465 472 473 667 668 669 
349 465 473 466 669 670 645 
350 466 473 474 670 671 672 
351 466 474 467 672 673 648 
352 467 474 475 673 674 675 
353 467 475 468 675 676 651 
354 468 475 476 676 677 678 
355 468 476 469 678 679 654 
356 469 476 477 679 680 681 
357 469 477 470 681 682 657 
358 470 477 478 682 683 684 
359 470 478 110 684 685 660 
360 110 478 109 685 686 118 
361 82 4 471 91 687 662 
362 471 4 92 687 100 688 
363 471 92 472 688 689 665 
364 472 92 93 689 101 690 
365 472 93 473 690 691 668 
366 473 93 94 691 102 692 
367 473 94 474 692 693 671 
368 474 94 95 693 103 694 
369 474 95 475 694 695 674 
370 475 95 96 695 104 696 
371 475 96 476 696 697 677 
372 476 96 97 697 105 698 
373 476 97 477 698 699 680 
374 477 97 98 699 106 700 
375 477 98 478 700 701 683 
376 478 98 99 701 107 702 
377 478 99 109 702 703 686 
378 109 99 3 703 108 117 
$EndElements
