$MeshFormat
4.1 0 8
$EndMeshFormat
$PhysicalNames
4
1 8 "bottomfix"
1 9 "load"
2 10 "soil1"
2 11 "soil2"
$EndPhysicalNames
$Entities
6 7 2 0
1 0 0 0 0 
2 1 0 0 0 
3 1 2 0 0 
4 0 2 0 0 
5 1 1 0 0 
6 0 1 0 0 
1 0 0 0 1 0 0 1 8 2 1 -2 
2 1 0 0 1 1 0 0 2 2 -5 
3 0 1 0 1 1 0 0 2 5 -6 
4 0 0 0 0 1 0 0 2 6 -1 
5 0 1 0 0 2 0 0 2 6 -4 
6 0 2 0 1 2 0 1 9 2 4 -3 
7 1 1 0 1 2 0 0 2 3 -5 
1 0 0 0 1 1 0 1 11 4 4 1 2 3 
2 0 1 0 1 2 0 1 10 4 5 6 7 3 
$EndEntities
$Nodes
15 190 1 190
0 1 0 1
1
0 0 0
0 2 0 1
2
1 0 0
0 3 0 1
3
1 2 0
0 4 0 1
4
0 2 0
0 5 0 1
5
1 1 0
0 6 0 1
6
0 1 0
1 1 0 8
7
8
9
10
11
12
13
14
0.1111111111109082 0 0
0.2222222222217143 0 0
0.333333333332501 0 0
0.4444444444432878 0 0
0.5555555555543833 0 0
0.6666666666657874 0 0
0.7777777777771916 0 0
0.8888888888885959 0 0
1 2 0 8
15
16
17
18
19
20
21
22
1 0.1111111111109082 0
1 0.2222222222217143 0
1 0.333333333332501 0
1 0.4444444444432878 0
1 0.5555555555543833 0
1 0.6666666666657874 0
1 0.7777777777771916 0
1 0.8888888888885959 0
1 3 0 8
23
24
25
26
27
28
29
30
0.8888888888884262 1 0
0.777777777777932 1 0
0.6666666666675918 1 0
0.5555555555572513 1 0
0.4444444444462943 1 0
0.3333333333347207 1 0
0.2222222222231471 1 0
0.1111111111115736 1 0
1 4 0 8
31
32
33
34
35
36
37
38
0 0.8888888888884262 0
0 0.777777777777932 0
0 0.6666666666675918 0
0 0.5555555555572513 0
0 0.4444444444462943 0
0 0.3333333333347207 0
0 0.2222222222231471 0
0 0.1111111111115736 0
1 5 0 8
39
40
41
42
43
44
45
46
0 1.111111111111111 0
0 1.222222222222222 0
0 1.333333333333333 0
0 1.444444444444444 0
0 1.555555555555556 0
0 1.666666666666667 0
0 1.777777777777778 0
0 1.888888888888889 0
1 6 0 8
47
48
49
50
51
52
53
54
0.1111111111109082 2 0
0.2222222222217143 2 0
0.333333333332501 2 0
0.4444444444432878 2 0
0.5555555555543833 2 0
0.6666666666657874 2 0
0.7777777777771916 2 0
0.8888888888885959 2 0
1 7 0 8
55
56
57
58
59
60
61
62
1 1.888888888888889 0
1 1.777777777777778 0
1 1.666666666666667 0
1 1.555555555555556 0
1 1.444444444444444 0
1 1.333333333333333 0
1 1.222222222222222 0
1 1.111111111111111 0
2 1 0 64
63
64
65
66
67
68
69
70
71
72
73
74
75
76
77
78
79
80
81
82
83
84
85
86
87
88
89
90
91
92
93
94
95
96
97
98
99
100
101
102
103
104
105
106
107
108
109
110
111
112
113
114
115
116
117
118
119
120
121
122
123
124
125
126
0.1111111111114996 0.8888888888884451 0
0.2222222222229879 0.888888888888464 0
0.3333333333344741 0.8888888888884825 0
0.4444444444459602 0.8888888888885017 0
0.5555555555569326 0.8888888888885206 0
0.6666666666673913 0.8888888888885392 0
0.7777777777778496 0.8888888888885584 0
0.888888888888445 0.888888888888577 0
0.1111111111114257 0.7777777777778497 0
0.2222222222228287 0.7777777777777675 0
0.3333333333342274 0.7777777777776851 0
0.4444444444456261 0.7777777777776029 0
0.5555555555566142 0.7777777777775206 0
0.666666666667191 0.7777777777774384 0
0.7777777777777675 0.7777777777773562 0
0.8888888888884641 0.7777777777772739 0
0.1111111111113518 0.6666666666673913 0
0.2222222222226695 0.6666666666671908 0
0.3333333333339809 0.6666666666669905 0
0.4444444444452922 0.66666666666679 0
0.5555555555562953 0.6666666666665892 0
0.6666666666669903 0.666666666666389 0
0.7777777777776853 0.6666666666661882 0
0.8888888888884827 0.666666666665988 0
0.1111111111112779 0.5555555555569327 0
0.2222222222225103 0.5555555555566141 0
0.3333333333337342 0.5555555555562954 0
0.4444444444449581 0.5555555555559766 0
0.5555555555559766 0.5555555555556579 0
0.66666666666679 0.5555555555553393 0
0.7777777777776029 0.5555555555550207 0
0.8888888888885016 0.555555555554702 0
0.1111111111112039 0.4444444444459603 0
0.2222222222223511 0.4444444444456261 0
0.3333333333334875 0.4444444444452922 0
0.4444444444446241 0.444444444444958 0
0.5555555555556581 0.4444444444446241 0
0.6666666666665892 0.44444444444429 0
0.7777777777775206 0.4444444444439559 0
0.8888888888885205 0.444444444443622 0
0.11111111111113 0.333333333334474 0
0.2222222222221919 0.3333333333342274 0
0.3333333333332409 0.3333333333339809 0
0.44444444444429 0.3333333333337342 0
0.5555555555553392 0.3333333333334876 0
0.666666666666389 0.3333333333332409 0
0.7777777777774384 0.3333333333329942 0
0.8888888888885393 0.3333333333327477 0
0.1111111111110561 0.222222222222988 0
0.2222222222220327 0.2222222222228287 0
0.3333333333329944 0.2222222222226695 0
0.4444444444439559 0.2222222222225103 0
0.5555555555550208 0.2222222222223511 0
0.6666666666661885 0.2222222222221919 0
0.777777777777356 0.2222222222220327 0
0.8888888888885582 0.2222222222218735 0
0.1111111111109822 0.1111111111114996 0
0.2222222222218735 0.1111111111114257 0
0.3333333333327477 0.1111111111113518 0
0.4444444444436219 0.1111111111112779 0
0.5555555555547019 0.1111111111112039 0
0.666666666665988 0.11111111111113 0
0.7777777777772739 0.1111111111110561 0
0.8888888888885771 0.1111111111109822 0
2 2 0 64
127
128
129
130
131
132
133
134
135
136
137
138
139
140
141
142
143
144
145
146
147
148
149
150
151
152
153
154
155
156
157
158
159
160
161
162
163
164
165
166
167
168
169
170
171
172
173
174
175
176
177
178
179
180
181
182
183
184
185
186
187
188
189
190
0.1111111111114996 1.111111111111111 0
0.2222222222229879 1.111111111111111 0
0.3333333333344741 1.111111111111111 0
0.4444444444459602 1.111111111111111 0
0.5555555555569326 1.111111111111111 0
0.6666666666673913 1.111111111111111 0
0.7777777777778496 1.111111111111111 0
0.888888888888445 1.111111111111111 0
0.1111111111114257 1.222222222222222 0
0.2222222222228287 1.222222222222222 0
0.3333333333342274 1.222222222222222 0
0.4444444444456261 1.222222222222222 0
0.555555555556614 1.222222222222222 0
0.666666666667191 1.222222222222222 0
0.7777777777777675 1.222222222222222 0
0.8888888888884638 1.222222222222222 0
0.1111111111113518 1.333333333333333 0
0.2222222222226695 1.333333333333333 0
0.3333333333339809 1.333333333333333 0
0.4444444444452922 1.333333333333333 0
0.5555555555562953 1.333333333333333 0
0.6666666666669903 1.333333333333333 0
0.7777777777776853 1.333333333333334 0
0.8888888888884827 1.333333333333333 0
0.1111111111112779 1.444444444444444 0
0.2222222222225103 1.444444444444444 0
0.3333333333337342 1.444444444444444 0
0.4444444444449581 1.444444444444445 0
0.5555555555559767 1.444444444444444 0
0.66666666666679 1.444444444444444 0
0.7777777777776029 1.444444444444444 0
0.8888888888885016 1.444444444444444 0
0.1111111111112039 1.555555555555555 0
0.2222222222223511 1.555555555555556 0
0.3333333333334875 1.555555555555555 0
0.4444444444446241 1.555555555555555 0
0.5555555555556581 1.555555555555556 0
0.6666666666665892 1.555555555555556 0
0.7777777777775206 1.555555555555556 0
0.8888888888885205 1.555555555555556 0
0.11111111111113 1.666666666666667 0
0.2222222222221919 1.666666666666667 0
0.3333333333332409 1.666666666666667 0
0.44444444444429 1.666666666666667 0
0.5555555555553392 1.666666666666666 0
0.666666666666389 1.666666666666667 0
0.7777777777774384 1.666666666666667 0
0.8888888888885393 1.666666666666666 0
0.1111111111110561 1.777777777777777 0
0.2222222222220327 1.777777777777778 0
0.3333333333329944 1.777777777777778 0
0.4444444444439559 1.777777777777778 0
0.5555555555550208 1.777777777777778 0
0.6666666666661882 1.777777777777778 0
0.7777777777773562 1.777777777777778 0
0.8888888888885582 1.777777777777778 0
0.1111111111109822 1.888888888888889 0
0.2222222222218735 1.888888888888889 0
0.3333333333327477 1.888888888888889 0
0.444444444443622 1.888888888888889 0
0.5555555555547019 1.888888888888889 0
0.666666666665988 1.888888888888889 0
0.7777777777772739 1.888888888888889 0
0.8888888888885769 1.888888888888889 0
$EndNodes
$Elements
4 180 1 180
1 1 1 9
1 1 7 
2 7 8 
3 8 9 
4 9 10 
5 10 11 
6 11 12 
7 12 13 
8 13 14 
9 14 2 
1 6 1 9
10 4 47 
11 47 48 
12 48 49 
13 49 50 
14 50 51 
15 51 52 
16 52 53 
17 53 54 
18 54 3 
2 1 3 81
19 6 31 63 30 
20 30 63 64 29 
21 29 64 65 28 
22 28 65 66 27 
23 27 66 67 26 
24 26 67 68 25 
25 25 68 69 24 
26 24 69 70 23 
27 23 70 22 5 
28 31 32 71 63 
29 63 71 72 64 
30 64 72 73 65 
31 65 73 74 66 
32 66 74 75 67 
33 67 75 76 68 
34 68 76 77 69 
35 69 77 78 70 
36 70 78 21 22 
37 32 33 79 71 
38 71 79 80 72 
39 72 80 81 73 
40 73 81 82 74 
41 74 82 83 75 
42 75 83 84 76 
43 76 84 85 77 
44 77 85 86 78 
45 78 86 20 21 
46 33 34 87 79 
47 79 87 88 80 
48 80 88 89 81 
49 81 89 90 82 
50 82 90 91 83 
51 83 91 92 84 
52 84 92 93 85 
53 85 93 94 86 
54 86 94 19 20 
55 34 35 95 87 
56 87 95 96 88 
57 88 96 97 89 
58 89 97 98 90 
59 90 98 99 91 
60 91 99 100 92 
61 92 100 101 93 
62 93 101 102 94 
63 94 102 18 19 
64 35 36 103 95 
65 95 103 104 96 
66 96 104 105 97 
67 97 105 106 98 
68 98 106 107 99 
69 99 107 108 100 
70 100 108 109 101 
71 101 109 110 102 
72 102 110 17 18 
73 36 37 111 103 
74 103 111 112 104 
75 104 112 113 105 
76 105 113 114 106 
77 106 114 115 107 
78 107 115 116 108 
79 108 116 117 109 
80 109 117 118 110 
81 110 118 16 17 
82 37 38 119 111 
83 111 119 120 112 
84 112 120 121 113 
85 113 121 122 114 
86 114 122 123 115 
87 115 123 124 116 
88 116 124 125 117 
89 117 125 126 118 
90 118 126 15 16 
91 38 1 7 119 
92 119 7 8 120 
93 120 8 9 121 
94 121 9 10 122 
95 122 10 11 123 
96 123 11 12 124 
97 124 12 13 125 
98 125 13 14 126 
99 126 14 2 15 
2 2 3 81
100 6 39 127 30 
101 30 127 128 29 
102 29 128 129 28 
103 28 129 130 27 
104 27 130 131 26 
105 26 131 132 25 
106 25 132 133 24 
107 24 133 134 23 
108 23 134 62 5 
109 39 40 135 127 
110 127 135 136 128 
111 128 136 137 129 
112 129 137 138 130 
113 130 138 139 131 
114 131 139 140 132 
115 132 140 141 133 
116 133 141 142 134 
117 134 142 61 62 
118 40 41 143 135 
119 135 143 144 136 
120 136 144 145 137 
121 137 145 146 138 
122 138 146 147 139 
123 139 147 148 140 
124 140 148 149 141 
125 141 149 150 142 
126 142 150 60 61 
127 41 42 151 143 
128 143 151 152 144 
129 144 152 153 145 
130 145 153 154 146 
131 146 154 155 147 
132 147 155 156 148 
133 148 156 157 149 
134 149 157 158 150 
135 150 158 59 60 
136 42 43 159 151 
137 151 159 160 152 
138 152 160 161 153 
139 153 161 162 154 
140 154 162 163 155 
141 155 163 164 156 
142 156 164 165 157 
143 157 165 166 158 
144 158 166 58 59 
145 43 44 167 159 
146 159 167 168 160 
147 160 168 169 161 
148 161 169 170 162 
149 162 170 171 163 
150 163 171 172 164 
151 164 172 173 165 
152 165 173 174 166 
153 166 174 57 58 
154 44 45 175 167 
155 167 175 176 168 
156 168 176 177 169 
157 169 177 178 170 
158 170 178 179 171 
159 171 179 180 172 
160 172 180 181 173 
161 173 181 182 174 
162 174 182 56 57 
163 45 46 183 175 
164 175 183 184 176 
165 176 184 185 177 
166 177 185 186 178 
167 178 186 187 179 
168 179 187 188 180 
169 180 188 189 181 
170 181 189 190 182 
171 182 190 55 56 
172 46 4 47 183 
173 183 47 48 184 
174 184 48 49 185 
175 185 49 50 186 
176 186 50 51 187 
177 187 51 52 188 
178 188 52 53 189 
179 189 53 54 190 
180 190 54 3 55 
$EndElements
