$MeshFormat
4.1 0 8
$EndMeshFormat
$PhysicalNames
4
0 8 "titik"
1 5 "fixed"
1 6 "load"
2 7 "soil1"
$EndPhysicalNames
$Entities
4 4 1 0
1 0 0 0 1 8 
2 1 0 0 0 
3 1 1 0 0 
4 0 1 0 0 
1 0 0 0 1 0 0 0 2 1 -2 
2 1 0 0 1 1 0 1 6 2 2 -3 
3 0 1 0 1 1 0 0 2 3 -4 
4 0 0 0 0 1 0 1 5 2 4 -1 
1 0 0 0 1 1 0 1 7 4 4 1 2 3 
$EndEntities
$Nodes
9 100 1 100
0 1 0 1
1
0 0 0
0 2 0 1
2
1 0 0
0 3 0 1
3
1 1 0
0 4 0 1
4
0 1 0
1 1 1 8
5
6
7
8
9
10
11
12
0.1111111111109082 0 0 0.1111111111109082
0.2222222222217143 0 0 0.2222222222217143
0.333333333332501 0 0 0.333333333332501
0.4444444444432878 0 0 0.4444444444432878
0.5555555555543833 0 0 0.5555555555543833
0.6666666666657874 0 0 0.6666666666657874
0.7777777777771916 0 0 0.7777777777771916
0.8888888888885959 0 0 0.8888888888885959
1 2 1 8
13
14
15
16
17
18
19
20
1 0.1111111111109082 0 0.1111111111109082
1 0.2222222222217143 0 0.2222222222217143
1 0.333333333332501 0 0.333333333332501
1 0.4444444444432878 0 0.4444444444432878
1 0.5555555555543833 0 0.5555555555543833
1 0.6666666666657874 0 0.6666666666657874
1 0.7777777777771916 0 0.7777777777771916
1 0.8888888888885959 0 0.8888888888885959
1 3 1 8
21
22
23
24
25
26
27
28
0.8888888888884262 1 0 0.1111111111115738
0.777777777777932 1 0 0.222222222222068
0.6666666666675918 1 0 0.3333333333324083
0.5555555555572513 1 0 0.4444444444427487
0.4444444444462943 1 0 0.5555555555537057
0.3333333333347207 1 0 0.6666666666652793
0.2222222222231471 1 0 0.7777777777768529
0.1111111111115736 1 0 0.8888888888884264
1 4 1 8
29
30
31
32
33
34
35
36
0 0.8888888888884262 0 0.1111111111115738
0 0.777777777777932 0 0.222222222222068
0 0.6666666666675918 0 0.3333333333324083
0 0.5555555555572513 0 0.4444444444427487
0 0.4444444444462943 0 0.5555555555537057
0 0.3333333333347207 0 0.6666666666652793
0 0.2222222222231471 0 0.7777777777768529
0 0.1111111111115736 0 0.8888888888884264
2 1 1 64
37
38
39
40
41
42
43
44
45
46
47
48
49
50
51
52
53
54
55
56
57
58
59
60
61
62
63
64
65
66
67
68
69
70
71
72
73
74
75
76
77
78
79
80
81
82
83
84
85
86
87
88
89
90
91
92
93
94
95
96
97
98
99
100
0.1111111111114996 0.8888888888884451 0 0.8888888888884451 0.1111111111114996
0.2222222222229879 0.888888888888464 0 0.888888888888464 0.2222222222229879
0.3333333333344741 0.8888888888884825 0 0.8888888888884825 0.3333333333344741
0.4444444444459602 0.8888888888885017 0 0.8888888888885017 0.4444444444459602
0.5555555555569326 0.8888888888885206 0 0.8888888888885206 0.5555555555569326
0.6666666666673913 0.8888888888885392 0 0.8888888888885392 0.6666666666673913
0.7777777777778496 0.8888888888885584 0 0.8888888888885584 0.7777777777778496
0.888888888888445 0.888888888888577 0 0.888888888888577 0.888888888888445
0.1111111111114257 0.7777777777778497 0 0.7777777777778497 0.1111111111114257
0.2222222222228287 0.7777777777777675 0 0.7777777777777675 0.2222222222228287
0.3333333333342274 0.7777777777776851 0 0.7777777777776851 0.3333333333342274
0.4444444444456261 0.7777777777776029 0 0.7777777777776029 0.4444444444456261
0.5555555555566142 0.7777777777775206 0 0.7777777777775206 0.5555555555566142
0.666666666667191 0.7777777777774384 0 0.7777777777774384 0.666666666667191
0.7777777777777675 0.7777777777773562 0 0.7777777777773562 0.7777777777777675
0.8888888888884641 0.7777777777772739 0 0.7777777777772739 0.8888888888884641
0.1111111111113518 0.6666666666673913 0 0.6666666666673913 0.1111111111113518
0.2222222222226695 0.6666666666671908 0 0.6666666666671908 0.2222222222226695
0.3333333333339809 0.6666666666669905 0 0.6666666666669905 0.3333333333339809
0.4444444444452922 0.66666666666679 0 0.66666666666679 0.4444444444452922
0.5555555555562953 0.6666666666665892 0 0.6666666666665892 0.5555555555562953
0.6666666666669903 0.666666666666389 0 0.666666666666389 0.6666666666669903
0.7777777777776853 0.6666666666661882 0 0.6666666666661882 0.7777777777776853
0.8888888888884827 0.666666666665988 0 0.666666666665988 0.8888888888884827
0.1111111111112779 0.5555555555569327 0 0.5555555555569327 0.1111111111112779
0.2222222222225103 0.5555555555566141 0 0.5555555555566141 0.2222222222225103
0.3333333333337342 0.5555555555562954 0 0.5555555555562954 0.3333333333337342
0.4444444444449581 0.5555555555559766 0 0.5555555555559766 0.4444444444449581
0.5555555555559766 0.5555555555556579 0 0.5555555555556579 0.5555555555559766
0.66666666666679 0.5555555555553393 0 0.5555555555553393 0.66666666666679
0.7777777777776029 0.5555555555550207 0 0.5555555555550207 0.7777777777776029
0.8888888888885016 0.555555555554702 0 0.555555555554702 0.8888888888885016
0.1111111111112039 0.4444444444459603 0 0.4444444444459603 0.1111111111112039
0.2222222222223511 0.4444444444456261 0 0.4444444444456261 0.2222222222223511
0.3333333333334875 0.4444444444452922 0 0.4444444444452922 0.3333333333334875
0.4444444444446241 0.444444444444958 0 0.444444444444958 0.4444444444446241
0.5555555555556581 0.4444444444446241 0 0.4444444444446241 0.5555555555556581
0.6666666666665892 0.44444444444429 0 0.44444444444429 0.6666666666665892
0.7777777777775206 0.4444444444439559 0 0.4444444444439559 0.7777777777775206
0.8888888888885205 0.444444444443622 0 0.444444444443622 0.8888888888885205
0.11111111111113 0.333333333334474 0 0.333333333334474 0.11111111111113
0.2222222222221919 0.3333333333342274 0 0.3333333333342274 0.2222222222221919
0.3333333333332409 0.3333333333339809 0 0.3333333333339809 0.3333333333332409
0.44444444444429 0.3333333333337342 0 0.3333333333337342 0.44444444444429
0.5555555555553392 0.3333333333334876 0 0.3333333333334876 0.5555555555553392
0.666666666666389 0.3333333333332409 0 0.3333333333332409 0.666666666666389
0.7777777777774384 0.3333333333329942 0 0.3333333333329942 0.7777777777774384
0.8888888888885393 0.3333333333327477 0 0.3333333333327477 0.8888888888885393
0.1111111111110561 0.222222222222988 0 0.222222222222988 0.1111111111110561
0.2222222222220327 0.2222222222228287 0 0.2222222222228287 0.2222222222220327
0.3333333333329944 0.2222222222226695 0 0.2222222222226695 0.3333333333329944
0.4444444444439559 0.2222222222225103 0 0.2222222222225103 0.4444444444439559
0.5555555555550208 0.2222222222223511 0 0.2222222222223511 0.5555555555550208
0.6666666666661885 0.2222222222221919 0 0.2222222222221919 0.6666666666661885
0.777777777777356 0.2222222222220327 0 0.2222222222220327 0.777777777777356
0.8888888888885582 0.2222222222218735 0 0.2222222222218735 0.8888888888885582
0.1111111111109822 0.1111111111114996 0 0.1111111111114996 0.1111111111109822
0.2222222222218735 0.1111111111114257 0 0.1111111111114257 0.2222222222218735
0.3333333333327477 0.1111111111113518 0 0.1111111111113518 0.3333333333327477
0.4444444444436219 0.1111111111112779 0 0.1111111111112779 0.4444444444436219
0.5555555555547019 0.1111111111112039 0 0.1111111111112039 0.5555555555547019
0.666666666665988 0.11111111111113 0 0.11111111111113 0.666666666665988
0.7777777777772739 0.1111111111110561 0 0.1111111111110561 0.7777777777772739
0.8888888888885771 0.1111111111109822 0 0.1111111111109822 0.8888888888885771
$EndNodes
$Elements
9 121 1 121
0 1 15 1
1 1 
0 2 15 1
2 2 
0 3 15 1
3 3 
0 4 15 1
4 4 
1 1 1 9
5 1 5 
6 5 6 
7 6 7 
8 7 8 
9 8 9 
10 9 10 
11 10 11 
12 11 12 
13 12 2 
1 2 1 9
14 2 13 
15 13 14 
16 14 15 
17 15 16 
18 16 17 
19 17 18 
20 18 19 
21 19 20 
22 20 3 
1 3 1 9
23 3 21 
24 21 22 
25 22 23 
26 23 24 
27 24 25 
28 25 26 
29 26 27 
30 27 28 
31 28 4 
1 4 1 9
32 4 29 
33 29 30 
34 30 31 
35 31 32 
36 32 33 
37 33 34 
38 34 35 
39 35 36 
40 36 1 
2 1 3 81
41 4 29 37 28 
42 28 37 38 27 
43 27 38 39 26 
44 26 39 40 25 
45 25 40 41 24 
46 24 41 42 23 
47 23 42 43 22 
48 22 43 44 21 
49 21 44 20 3 
50 29 30 45 37 
51 37 45 46 38 
52 38 46 47 39 
53 39 47 48 40 
54 40 48 49 41 
55 41 49 50 42 
56 42 50 51 43 
57 43 51 52 44 
58 44 52 19 20 
59 30 31 53 45 
60 45 53 54 46 
61 46 54 55 47 
62 47 55 56 48 
63 48 56 57 49 
64 49 57 58 50 
65 50 58 59 51 
66 51 59 60 52 
67 52 60 18 19 
68 31 32 61 53 
69 53 61 62 54 
70 54 62 63 55 
71 55 63 64 56 
72 56 64 65 57 
73 57 65 66 58 
74 58 66 67 59 
75 59 67 68 60 
76 60 68 17 18 
77 32 33 69 61 
78 61 69 70 62 
79 62 70 71 63 
80 63 71 72 64 
81 64 72 73 65 
82 65 73 74 66 
83 66 74 75 67 
84 67 75 76 68 
85 68 76 16 17 
86 33 34 77 69 
87 69 77 78 70 
88 70 78 79 71 
89 71 79 80 72 
90 72 80 81 73 
91 73 81 82 74 
92 74 82 83 75 
93 75 83 84 76 
94 76 84 15 16 
95 34 35 85 77 
96 77 85 86 78 
97 78 86 87 79 
98 79 87 88 80 
99 80 88 89 81 
100 81 89 90 82 
101 82 90 91 83 
102 83 91 92 84 
103 84 92 14 15 
104 35 36 93 85 
105 85 93 94 86 
106 86 94 95 87 
107 87 95 96 88 
108 88 96 97 89 
109 89 97 98 90 
110 90 98 99 91 
111 91 99 100 92 
112 92 100 13 14 
113 36 1 5 93 
114 93 5 6 94 
115 94 6 7 95 
116 95 7 8 96 
117 96 8 9 97 
118 97 9 10 98 
119 98 10 11 99 
120 99 11 12 100 
121 100 12 2 13 
$EndElements
