$MeshFormat
4.1 0 8
$EndMeshFormat
$PhysicalNames
3
1 5 "fixed"
1 6 "load"
2 7 "soil1"
$EndPhysicalNames
$Entities
4 4 1 0
1 0 0 0 0 
2 1 0 0 0 
3 1 1 0 0 
4 0 1 0 0 
1 0 0 0 1 0 0 0 2 1 -2 
2 1 0 0 1 1 0 1 6 2 2 -3 
3 0 1 0 1 1 0 0 2 3 -4 
4 0 0 0 0 1 0 1 5 2 4 -1 
1 0 0 0 1 1 0 1 7 4 4 1 2 3 
$EndEntities
$Nodes
9 100 1 100
0 1 0 1
1
0 0 0
0 2 0 1
2
1 0 0
0 3 0 1
3
1 1 0
0 4 0 1
4
0 1 0
1 1 1 8
5
6
7
8
9
10
11
12
0.1111111111109082 0 0 0.1111111111109082
0.2222222222217143 0 0 0.2222222222217143
0.333333333332501 0 0 0.333333333332501
0.4444444444432878 0 0 0.4444444444432878
0.5555555555543833 0 0 0.5555555555543833
0.6666666666657874 0 0 0.6666666666657874
0.7777777777771916 0 0 0.7777777777771916
0.8888888888885959 0 0 0.8888888888885959
1 2 1 8
13
14
15
16
17
18
19
20
1 0.1111111111109082 0 0.1111111111109082
1 0.2222222222217143 0 0.2222222222217143
1 0.333333333332501 0 0.333333333332501
1 0.4444444444432878 0 0.4444444444432878
1 0.5555555555543833 0 0.5555555555543833
1 0.6666666666657874 0 0.6666666666657874
1 0.7777777777771916 0 0.7777777777771916
1 0.8888888888885959 0 0.8888888888885959
1 3 1 8
21
22
23
24
25
26
27
28
0.8888888888884262 1 0 0.1111111111115738
0.777777777777932 1 0 0.222222222222068
0.6666666666675918 1 0 0.3333333333324083
0.5555555555572513 1 0 0.4444444444427487
0.4444444444462943 1 0 0.5555555555537057
0.3333333333347207 1 0 0.6666666666652793
0.2222222222231471 1 0 0.7777777777768529
0.1111111111115736 1 0 0.8888888888884264
1 4 1 8
29
30
31
32
33
34
35
36
0 0.8888888888884262 0 0.1111111111115738
0 0.777777777777932 0 0.222222222222068
0 0.6666666666675918 0 0.3333333333324083
0 0.5555555555572513 0 0.4444444444427487
0 0.4444444444462943 0 0.5555555555537057
0 0.3333333333347207 0 0.6666666666652793
0 0.2222222222231471 0 0.7777777777768529
0 0.1111111111115736 0 0.8888888888884264
2 1 1 64
37
38
39
40
41
42
43
44
45
46
47
48
49
50
51
52
53
54
55
56
57
58
59
60
61
62
63
64
65
66
67
68
69
70
71
72
73
74
75
76
77
78
79
80
81
82
83
84
85
86
87
88
89
90
91
92
93
94
95
96
97
98
99
100
0.1111111111114996 0.8888888888884451 0 0.8888888888884451 0.1111111111114996
0.2222222222229879 0.888888888888464 0 0.888888888888464 0.2222222222229879
0.3333333333344741 0.8888888888884825 0 0.8888888888884825 0.3333333333344741
0.4444444444459602 0.8888888888885017 0 0.8888888888885017 0.4444444444459602
0.5555555555569326 0.8888888888885206 0 0.8888888888885206 0.5555555555569326
0.6666666666673913 0.8888888888885392 0 0.8888888888885392 0.6666666666673913
0.7777777777778496 0.8888888888885584 0 0.8888888888885584 0.7777777777778496
0.888888888888445 0.888888888888577 0 0.888888888888577 0.888888888888445
0.1111111111114257 0.7777777777778497 0 0.7777777777778497 0.1111111111114257
0.2222222222228287 0.7777777777777675 0 0.7777777777777675 0.2222222222228287
0.3333333333342274 0.7777777777776851 0 0.7777777777776851 0.3333333333342274
0.4444444444456261 0.7777777777776029 0 0.7777777777776029 0.4444444444456261
0.5555555555566142 0.7777777777775206 0 0.7777777777775206 0.5555555555566142
0.666666666667191 0.7777777777774384 0 0.7777777777774384 0.666666666667191
0.7777777777777675 0.7777777777773562 0 0.7777777777773562 0.7777777777777675
0.8888888888884641 0.7777777777772739 0 0.7777777777772739 0.8888888888884641
0.1111111111113518 0.6666666666673913 0 0.6666666666673913 0.1111111111113518
0.2222222222226695 0.6666666666671908 0 0.6666666666671908 0.2222222222226695
0.3333333333339809 0.6666666666669905 0 0.6666666666669905 0.3333333333339809
0.4444444444452922 0.66666666666679 0 0.66666666666679 0.4444444444452922
0.5555555555562953 0.6666666666665892 0 0.6666666666665892 0.5555555555562953
0.6666666666669903 0.666666666666389 0 0.666666666666389 0.6666666666669903
0.7777777777776853 0.6666666666661882 0 0.6666666666661882 0.7777777777776853
0.8888888888884827 0.666666666665988 0 0.666666666665988 0.8888888888884827
0.1111111111112779 0.5555555555569327 0 0.5555555555569327 0.1111111111112779
0.2222222222225103 0.5555555555566141 0 0.5555555555566141 0.2222222222225103
0.3333333333337342 0.5555555555562954 0 0.5555555555562954 0.3333333333337342
0.4444444444449581 0.5555555555559766 0 0.5555555555559766 0.4444444444449581
0.5555555555559766 0.5555555555556579 0 0.5555555555556579 0.5555555555559766
0.66666666666679 0.5555555555553393 0 0.5555555555553393 0.66666666666679
0.7777777777776029 0.5555555555550207 0 0.5555555555550207 0.7777777777776029
0.8888888888885016 0.555555555554702 0 0.555555555554702 0.8888888888885016
0.1111111111112039 0.4444444444459603 0 0.4444444444459603 0.1111111111112039
0.2222222222223511 0.4444444444456261 0 0.4444444444456261 0.2222222222223511
0.3333333333334875 0.4444444444452922 0 0.4444444444452922 0.3333333333334875
0.4444444444446241 0.444444444444958 0 0.444444444444958 0.4444444444446241
0.5555555555556581 0.4444444444446241 0 0.4444444444446241 0.5555555555556581
0.6666666666665892 0.44444444444429 0 0.44444444444429 0.6666666666665892
0.7777777777775206 0.4444444444439559 0 0.4444444444439559 0.7777777777775206
0.8888888888885205 0.444444444443622 0 0.444444444443622 0.8888888888885205
0.11111111111113 0.333333333334474 0 0.333333333334474 0.11111111111113
0.2222222222221919 0.3333333333342274 0 0.3333333333342274 0.2222222222221919
0.3333333333332409 0.3333333333339809 0 0.3333333333339809 0.3333333333332409
0.44444444444429 0.3333333333337342 0 0.3333333333337342 0.44444444444429
0.5555555555553392 0.3333333333334876 0 0.3333333333334876 0.5555555555553392
0.666666666666389 0.3333333333332409 0 0.3333333333332409 0.666666666666389
0.7777777777774384 0.3333333333329942 0 0.3333333333329942 0.7777777777774384
0.8888888888885393 0.3333333333327477 0 0.3333333333327477 0.8888888888885393
0.1111111111110561 0.222222222222988 0 0.222222222222988 0.1111111111110561
0.2222222222220327 0.2222222222228287 0 0.2222222222228287 0.2222222222220327
0.3333333333329944 0.2222222222226695 0 0.2222222222226695 0.3333333333329944
0.4444444444439559 0.2222222222225103 0 0.2222222222225103 0.4444444444439559
0.5555555555550208 0.2222222222223511 0 0.2222222222223511 0.5555555555550208
0.6666666666661885 0.2222222222221919 0 0.2222222222221919 0.6666666666661885
0.777777777777356 0.2222222222220327 0 0.2222222222220327 0.777777777777356
0.8888888888885582 0.2222222222218735 0 0.2222222222218735 0.8888888888885582
0.1111111111109822 0.1111111111114996 0 0.1111111111114996 0.1111111111109822
0.2222222222218735 0.1111111111114257 0 0.1111111111114257 0.2222222222218735
0.3333333333327477 0.1111111111113518 0 0.1111111111113518 0.3333333333327477
0.4444444444436219 0.1111111111112779 0 0.1111111111112779 0.4444444444436219
0.5555555555547019 0.1111111111112039 0 0.1111111111112039 0.5555555555547019
0.666666666665988 0.11111111111113 0 0.11111111111113 0.666666666665988
0.7777777777772739 0.1111111111110561 0 0.1111111111110561 0.7777777777772739
0.8888888888885771 0.1111111111109822 0 0.1111111111109822 0.8888888888885771
$EndNodes
$Elements
9 121 1 121
0 1 15 1
100 1 
0 2 15 1
101 2 
0 3 15 1
102 3 
0 4 15 1
103 4 
1 1 1 9
104 1 5 
105 5 6 
106 6 7 
107 7 8 
108 8 9 
109 9 10 
110 10 11 
111 11 12 
112 12 2 
1 2 1 9
1 2 13 
2 13 14 
3 14 15 
4 15 16 
5 16 17 
6 17 18 
7 18 19 
8 19 20 
9 20 3 
1 3 1 9
113 3 21 
114 21 22 
115 22 23 
116 23 24 
117 24 25 
118 25 26 
119 26 27 
120 27 28 
121 28 4 
1 4 1 9
10 4 29 
11 29 30 
12 30 31 
13 31 32 
14 32 33 
15 33 34 
16 34 35 
17 35 36 
18 36 1 
2 1 3 81
19 4 29 37 28 
20 28 37 38 27 
21 27 38 39 26 
22 26 39 40 25 
23 25 40 41 24 
24 24 41 42 23 
25 23 42 43 22 
26 22 43 44 21 
27 21 44 20 3 
28 29 30 45 37 
29 37 45 46 38 
30 38 46 47 39 
31 39 47 48 40 
32 40 48 49 41 
33 41 49 50 42 
34 42 50 51 43 
35 43 51 52 44 
36 44 52 19 20 
37 30 31 53 45 
38 45 53 54 46 
39 46 54 55 47 
40 47 55 56 48 
41 48 56 57 49 
42 49 57 58 50 
43 50 58 59 51 
44 51 59 60 52 
45 52 60 18 19 
46 31 32 61 53 
47 53 61 62 54 
48 54 62 63 55 
49 55 63 64 56 
50 56 64 65 57 
51 57 65 66 58 
52 58 66 67 59 
53 59 67 68 60 
54 60 68 17 18 
55 32 33 69 61 
56 61 69 70 62 
57 62 70 71 63 
58 63 71 72 64 
59 64 72 73 65 
60 65 73 74 66 
61 66 74 75 67 
62 67 75 76 68 
63 68 76 16 17 
64 33 34 77 69 
65 69 77 78 70 
66 70 78 79 71 
67 71 79 80 72 
68 72 80 81 73 
69 73 81 82 74 
70 74 82 83 75 
71 75 83 84 76 
72 76 84 15 16 
73 34 35 85 77 
74 77 85 86 78 
75 78 86 87 79 
76 79 87 88 80 
77 80 88 89 81 
78 81 89 90 82 
79 82 90 91 83 
80 83 91 92 84 
81 84 92 14 15 
82 35 36 93 85 
83 85 93 94 86 
84 86 94 95 87 
85 87 95 96 88 
86 88 96 97 89 
87 89 97 98 90 
88 90 98 99 91 
89 91 99 100 92 
90 92 100 13 14 
91 36 1 5 93 
92 93 5 6 94 
93 94 6 7 95 
94 95 7 8 96 
95 96 8 9 97 
96 97 9 10 98 
97 98 10 11 99 
98 99 11 12 100 
99 100 12 2 13 
$EndElements
