$MeshFormat
4.1 0 8
$EndMeshFormat
$PhysicalNames
6
1 15 "bottomfix"
1 16 "sidefix"
1 17 "load"
2 18 "soil1"
2 19 "soil2"
2 20 "timbunan"
$EndPhysicalNames
$Entities
11 14 4 0
1 0 0 0 0 
2 10 0 0 0 
3 10 4 0 0 
4 10 2 0 0 
5 0 2 0 0 
6 10 1 0 0 
7 10 3 0 0 
8 8 4 0 0 
9 6 3 0 0 
10 4 2 0 0 
11 0 1 0 0 
1 0 0 0 10 0 0 1 15 2 1 -2 
2 10 0 0 10 1 0 1 16 2 2 -6 
3 0 1 0 10 1 0 0 2 6 -11 
4 0 0 0 0 1 0 1 16 2 11 -1 
5 0 1 0 0 2 0 1 16 2 11 -5 
6 0 2 0 4 2 0 0 2 5 -10 
7 4 2 0 10 2 0 0 2 10 -4 
8 10 2 0 10 3 0 1 16 2 4 -7 
9 6 3 0 10 3 0 0 2 7 -9 
10 4 2 0 6 3 0 0 2 9 -10 
11 6 3 0 8 4 0 0 2 9 -8 
12 8 4 0 10 4 0 1 17 2 8 -3 
13 10 3 0 10 4 0 1 16 2 3 -7 
14 10 1 0 10 2 0 1 16 2 4 -6 
1 0 0 0 10 1 0 1 19 4 1 2 3 4 
2 0 1 0 10 2 0 1 18 5 5 6 7 14 3 
3 4 2 0 10 3 0 1 20 4 7 8 9 10 
4 6 3 0 10 4 0 1 20 4 13 9 11 12 
$EndEntities
$Nodes
29 476 1 476
0 1 0 1
1
0 0 0
0 2 0 1
2
10 0 0
0 3 0 1
3
10 4 0
0 4 0 1
4
10 2 0
0 5 0 1
5
0 2 0
0 6 0 1
6
10 1 0
0 7 0 1
7
10 3 0
0 8 0 1
8
8 4 0
0 9 0 1
9
6 3 0
0 10 0 1
10
4 2 0
0 11 0 1
11
0 1 0
1 1 1 28
12
13
14
15
16
17
18
19
20
21
22
23
24
25
26
27
28
29
30
31
32
33
34
35
36
37
38
39
0.3448275862066271 0 0 0.03448275862066271
0.6896551724131987 0 0 0.06896551724131987
1.034482758619854 0 0 0.1034482758619854
1.379310344826223 0 0 0.1379310344826223
1.724137931032113 0 0 0.1724137931032113
2.068965517238002 0 0 0.2068965517238002
2.413793103443891 0 0 0.2413793103443891
2.75862068964978 0 0 0.2758620689649781
3.10344827585567 0 0 0.310344827585567
3.44827586206156 0 0 0.3448275862061559
3.793103448267449 0 0 0.3793103448267449
4.137931034473848 0 0 0.4137931034473847
4.482758620681268 0 0 0.4482758620681268
4.827586206888689 0 0 0.4827586206888689
5.17241379309611 0 0 0.517241379309611
5.51724137930353 0 0 0.551724137930353
5.862068965510952 0 0 0.5862068965510951
6.206896551718372 0 0 0.6206896551718372
6.551724137925793 0 0 0.6551724137925793
6.896551724133214 0 0 0.6896551724133214
7.241379310340634 0 0 0.7241379310340634
7.586206896548056 0 0 0.7586206896548056
7.931034482755476 0 0 0.7931034482755476
8.275862068962898 0 0 0.8275862068962897
8.620689655170317 0 0 0.8620689655170317
8.965517241377738 0 0 0.8965517241377737
9.310344827585158 0 0 0.9310344827585159
9.655172413792579 0 0 0.965517241379258
1 2 1 3
40
41
42
10 0.2499999999994109 0 0.2499999999994109
10 0.4999999999986921 0 0.4999999999986921
10 0.7499999999993406 0 0.7499999999993406
1 3 1 28
43
44
45
46
47
48
49
50
51
52
53
54
55
56
57
58
59
60
61
62
63
64
65
66
67
68
69
70
9.655172413793103 1 0 0.03448275862068971
9.310344827586206 1 0 0.06896551724137941
8.96551724137931 1 0 0.1034482758620691
8.620689655172413 1 0 0.1379310344827588
8.275862068965514 1 0 0.1724137931034486
7.931034482758617 1 0 0.2068965517241383
7.586206896551719 1 0 0.2413793103448281
7.241379310344822 1 0 0.2758620689655177
6.896551724137927 1 0 0.3103448275862074
6.55172413793103 1 0 0.344827586206897
6.206896551724133 1 0 0.3793103448275866
5.862068965517238 1 0 0.4137931034482762
5.517241379310341 1 0 0.4482758620689659
5.172413793103445 1 0 0.4827586206896555
4.827586206896548 1 0 0.5172413793103452
4.482758620689652 1 0 0.5517241379310348
4.137931034482756 1 0 0.5862068965517244
3.793103448275859 1 0 0.620689655172414
3.448275862068963 1 0 0.6551724137931038
3.103448275862066 1 0 0.6896551724137934
2.75862068965517 1 0 0.724137931034483
2.413793103448274 1 0 0.7586206896551726
2.068965517241378 1 0 0.7931034482758622
1.724137931034482 1 0 0.8275862068965518
1.379310344827584 1 0 0.8620689655172415
1.034482758620689 1 0 0.8965517241379312
0.6896551724137918 1 0 0.9310344827586208
0.3448275862068968 1 0 0.9655172413793104
1 4 1 3
71
72
73
0 0.7500000000003471 0 0.249999999999653
0 0.5000000000020595 0 0.4999999999979405
0 0.2500000000010405 0 0.7499999999989595
1 5 1 3
74
75
76
0 1.25 0 0.25
0 1.5 0 0.5
0 1.75 0 0.75
1 6 1 18
77
78
79
80
81
82
83
84
85
86
87
88
89
90
91
92
93
94
0.2105263157890478 2 0 0.05263157894726195
0.4210526315781716 2 0 0.1052631578945429
0.6315789473671403 2 0 0.1578947368417851
0.8421052631559994 2 0 0.2105263157889999
1.052631578944858 2 0 0.2631578947362146
1.263157894733718 2 0 0.3157894736834294
1.473684210522577 2 0 0.3684210526306442
1.684210526311436 2 0 0.421052631577859
1.894736842100295 2 0 0.4736842105250738
2.105263157889739 2 0 0.5263157894724348
2.315789473679768 2 0 0.5789473684199421
2.526315789469797 2 0 0.6315789473674494
2.736842105259826 2 0 0.6842105263149566
2.947368421049855 2 0 0.7368421052624637
3.157894736839884 2 0 0.789473684209971
3.368421052629913 2 0 0.8421052631574782
3.578947368419942 2 0 0.8947368421049855
3.789473684209971 2 0 0.9473684210524927
1 7 1 18
95
96
97
98
99
100
101
102
103
104
105
106
107
108
109
110
111
112
4.315789473680028 2 0 0.05263157894667139
4.631578947363855 2 0 0.1052631578939758
4.947368421045637 2 0 0.1578947368409394
5.263157894729445 2 0 0.2105263157882408
5.578947368414148 2 0 0.2631578947356913
5.894736842098849 2 0 0.3157894736831416
6.210526315783552 2 0 0.368421052630592
6.526315789468255 2 0 0.4210526315780424
6.842105263152956 2 0 0.4736842105254928
7.157894736837661 2 0 0.5263157894729434
7.473684210522365 2 0 0.5789473684203942
7.78947368420707 2 0 0.6315789473678449
8.105263157891773 2 0 0.6842105263152957
8.42105263157648 2 0 0.7368421052627464
8.736842105261182 2 0 0.7894736842101971
9.052631578945888 2 0 0.8421052631576479
9.368421052630591 2 0 0.8947368421050986
9.684210526315297 2 0 0.9473684210525494
1 8 1 3
113
114
115
10 2.25 0 0.25
10 2.5 0 0.5
10 2.75 0 0.75
1 9 1 18
116
117
118
119
120
121
122
123
124
125
126
127
128
129
130
131
132
133
9.789473684210526 3 0 0.05263157894736842
9.578947368421053 3 0 0.1052631578947368
9.368421052631579 3 0 0.1578947368421053
9.157894736842106 3 0 0.2105263157894737
8.947368421052632 3 0 0.2631578947368421
8.736842105263158 3 0 0.3157894736842105
8.526315789473685 3 0 0.3684210526315789
8.315789473684211 3 0 0.4210526315789473
8.105263157894736 3 0 0.4736842105263158
7.894736842105264 3 0 0.5263157894736842
7.684210526315789 3 0 0.5789473684210527
7.473684210526316 3 0 0.631578947368421
7.263157894736842 3 0 0.6842105263157894
7.052631578947368 3 0 0.7368421052631579
6.842105263157895 3 0 0.7894736842105263
6.631578947368421 3 0 0.8421052631578947
6.421052631578948 3 0 0.8947368421052631
6.210526315789474 3 0 0.9473684210526315
1 10 1 8
134
135
136
137
138
139
140
141
5.777777777777778 2.888888888888889 0 0.1111111111111111
5.555555555555555 2.777777777777778 0 0.2222222222222222
5.333333333333333 2.666666666666667 0 0.3333333333333333
5.111111111111111 2.555555555555555 0 0.4444444444444445
4.888888888888889 2.444444444444445 0 0.5555555555555556
4.666666666666667 2.333333333333333 0 0.6666666666666666
4.444444444444445 2.222222222222222 0 0.7777777777777778
4.222222222222222 2.111111111111111 0 0.888888888888889
1 11 1 8
142
143
144
145
146
147
148
149
6.222222222222222 3.111111111111111 0 0.1111111111111111
6.444444444444445 3.222222222222222 0 0.2222222222222222
6.666666666666667 3.333333333333333 0 0.3333333333333333
6.888888888888889 3.444444444444445 0 0.4444444444444445
7.111111111111111 3.555555555555555 0 0.5555555555555556
7.333333333333333 3.666666666666667 0 0.6666666666666666
7.555555555555555 3.777777777777778 0 0.7777777777777778
7.777777777777778 3.888888888888889 0 0.888888888888889
1 12 1 8
150
151
152
153
154
155
156
157
8.222222222222221 4 0 0.1111111111111111
8.444444444444445 4 0 0.2222222222222222
8.666666666666666 4 0 0.3333333333333333
8.888888888888889 4 0 0.4444444444444444
9.111111111111111 4 0 0.5555555555555556
9.333333333333334 4 0 0.6666666666666666
9.555555555555555 4 0 0.7777777777777777
9.777777777777779 4 0 0.8888888888888888
1 13 1 3
158
159
160
10 3.75 0 0.25
10 3.5 0 0.5
10 3.25 0 0.75
1 14 1 3
161
162
163
10 1.75 0 0.25
10 1.5 0 0.5
10 1.25 0 0.75
2 1 1 84
164
165
166
167
168
169
170
171
172
173
174
175
176
177
178
179
180
181
182
183
184
185
186
187
188
189
190
191
192
193
194
195
196
197
198
199
200
201
202
203
204
205
206
207
208
209
210
211
212
213
214
215
216
217
218
219
220
221
222
223
224
225
226
227
228
229
230
231
232
233
234
235
236
237
238
239
240
241
242
243
244
245
246
247
0.3448275862066945 0.2500000000009843 0 0.2500000000009843 0.3448275862066945
0.3448275862067619 0.5000000000019433 0 0.5000000000019433 0.3448275862067619
0.3448275862068294 0.7500000000003122 0 0.7500000000003122 0.3448275862068294
0.6896551724133467 0.2500000000009281 0 0.2500000000009281 0.6896551724133467
0.6896551724134952 0.5000000000018272 0 0.5000000000018272 0.6896551724134952
0.6896551724136437 0.7500000000002776 0 0.7500000000002776 0.6896551724136437
1.034482758620063 0.2500000000008719 0 0.2500000000008719 1.034482758620063
1.034482758620272 0.5000000000017111 0 0.5000000000017111 1.034482758620272
1.03448275862048 0.7500000000002428 0 0.7500000000002428 1.03448275862048
1.379310344826563 0.2500000000008157 0 0.2500000000008157 1.379310344826563
1.379310344826903 0.5000000000015952 0 0.5000000000015952 1.379310344826903
1.379310344827244 0.7500000000002081 0 0.7500000000002081 1.379310344827244
1.724137931032705 0.2500000000007595 0 0.2500000000007595 1.724137931032705
1.724137931033297 0.5000000000014788 0 0.5000000000014788 1.724137931033297
1.724137931033889 0.7500000000001736 0 0.7500000000001736 1.724137931033889
2.068965517238846 0.2500000000007033 0 0.2500000000007033 2.068965517238846
2.068965517239691 0.5000000000013629 0 0.5000000000013629 2.068965517239691
2.068965517240534 0.7500000000001388 0 0.7500000000001388 2.068965517240534
2.413793103444987 0.2500000000006471 0 0.2500000000006471 2.413793103444987
2.413793103446083 0.5000000000012466 0 0.5000000000012466 2.413793103446083
2.413793103447178 0.7500000000001042 0 0.7500000000001042 2.413793103447178
2.758620689651128 0.250000000000591 0 0.250000000000591 2.758620689651128
2.758620689652474 0.5000000000011307 0 0.5000000000011307 2.758620689652474
2.758620689653823 0.7500000000000696 0 0.7500000000000696 2.758620689653823
3.103448275857269 0.2500000000005348 0 0.2500000000005348 3.103448275857269
3.103448275858868 0.5000000000010143 0 0.5000000000010143 3.103448275858868
3.103448275860467 0.7500000000000347 0 0.7500000000000347 3.103448275860467
3.44827586206341 0.2500000000004786 0 0.2500000000004786 3.44827586206341
3.448275862065262 0.5000000000008984 0 0.5000000000008984 3.448275862065262
3.448275862067112 0.75 0 0.75 3.448275862067112
3.793103448269552 0.2500000000004224 0 0.2500000000004224 3.793103448269552
3.793103448271656 0.500000000000782 0 0.500000000000782 3.793103448271656
3.793103448273757 0.7499999999999654 0 0.7499999999999654 3.793103448273757
4.137931034476074 0.2500000000003663 0 0.2500000000003663 4.137931034476074
4.137931034478303 0.5000000000006661 0 0.5000000000006661 4.137931034478303
4.13793103448053 0.7499999999999306 0 0.7499999999999306 4.13793103448053
4.482758620683365 0.25000000000031 0 0.25000000000031 4.482758620683365
4.482758620685459 0.50000000000055 0 0.50000000000055 4.482758620685459
4.482758620687557 0.749999999999896 0 0.749999999999896 4.482758620687557
4.827586206890652 0.2500000000002538 0 0.2500000000002538 4.827586206890652
4.827586206892619 0.5000000000004339 0 0.5000000000004339 4.827586206892619
4.827586206894583 0.7499999999998614 0 0.7499999999998614 4.827586206894583
5.172413793097943 0.2500000000001976 0 0.2500000000001976 5.172413793097943
5.172413793099778 0.5000000000003177 0 0.5000000000003177 5.172413793099778
5.172413793101612 0.7499999999998265 0 0.7499999999998265 5.172413793101612
5.517241379305232 0.2500000000001414 0 0.2500000000001414 5.517241379305232
5.517241379306936 0.5000000000002016 0 0.5000000000002016 5.517241379306936
5.517241379308638 0.7499999999997916 0 0.7499999999997916 5.517241379308638
5.862068965512524 0.2500000000000853 0 0.2500000000000853 5.862068965512524
5.862068965514096 0.5000000000000855 0 0.5000000000000855 5.862068965514096
5.862068965515666 0.749999999999757 0 0.749999999999757 5.862068965515666
6.206896551719812 0.250000000000029 0 0.250000000000029 6.206896551719812
6.206896551721252 0.4999999999999694 0 0.4999999999999694 6.206896551721252
6.206896551722693 0.7499999999997223 0 0.7499999999997223 6.206896551722693
6.551724137927101 0.2499999999999728 0 0.2499999999999728 6.551724137927101
6.55172413792841 0.4999999999998532 0 0.4999999999998532 6.55172413792841
6.551724137929721 0.7499999999996877 0 0.7499999999996877 6.551724137929721
6.896551724134392 0.2499999999999166 0 0.2499999999999166 6.896551724134392
6.896551724135572 0.4999999999997371 0 0.4999999999997371 6.896551724135572
6.896551724136749 0.7499999999996531 0 0.7499999999996531 6.896551724136749
7.241379310341682 0.2499999999998604 0 0.2499999999998604 7.241379310341682
7.241379310342728 0.4999999999996211 0 0.4999999999996211 7.241379310342728
7.241379310343776 0.7499999999996185 0 0.7499999999996185 7.241379310343776
7.586206896548972 0.2499999999998043 0 0.2499999999998043 7.586206896548972
7.586206896549889 0.4999999999995048 0 0.4999999999995048 7.586206896549889
7.586206896550803 0.7499999999995836 0 0.7499999999995836 7.586206896550803
7.93103448275626 0.2499999999997481 0 0.2499999999997481 7.93103448275626
7.931034482757046 0.4999999999993888 0 0.4999999999993888 7.931034482757046
7.931034482757831 0.7499999999995489 0 0.7499999999995489 7.931034482757831
8.275862068963551 0.2499999999996919 0 0.2499999999996919 8.275862068963551
8.275862068964205 0.4999999999992727 0 0.4999999999992727 8.275862068964205
8.275862068964861 0.7499999999995141 0 0.7499999999995141 8.275862068964861
8.620689655170843 0.2499999999996357 0 0.2499999999996357 8.620689655170843
8.620689655171365 0.4999999999991566 0 0.4999999999991566 8.620689655171365
8.620689655171887 0.7499999999994794 0 0.7499999999994794 8.620689655171887
8.96551724137813 0.2499999999995795 0 0.2499999999995795 8.96551724137813
8.965517241378524 0.4999999999990404 0 0.4999999999990404 8.965517241378524
8.965517241378915 0.7499999999994448 0 0.7499999999994448 8.965517241378915
9.310344827585418 0.2499999999995233 0 0.2499999999995233 9.310344827585418
9.310344827585681 0.4999999999989244 0 0.4999999999989244 9.310344827585681
9.310344827585944 0.7499999999994101 0 0.7499999999994101 9.310344827585944
9.655172413792709 0.2499999999994671 0 0.2499999999994671 9.655172413792709
9.65517241379284 0.4999999999988082 0 0.4999999999988082 9.65517241379284
9.655172413792972 0.7499999999993753 0 0.7499999999993753 9.655172413792972
2 2 1 108
248
249
250
251
252
253
254
255
256
257
258
259
260
261
262
263
264
265
266
267
268
269
270
271
272
273
274
275
276
277
278
279
280
281
282
283
284
285
286
287
288
289
290
291
292
293
294
295
296
297
298
299
300
301
302
303
304
305
306
307
308
309
310
311
312
313
314
315
316
317
318
319
320
321
322
323
324
325
326
327
328
329
330
331
332
333
334
335
336
337
338
339
340
341
342
343
344
345
346
347
348
349
350
351
352
353
354
355
0.5263157894726557 1.817678862361656 0 -1.817678862361656 0.5263157894726557
3.256434479872986 1.834725669689398 0 -1.834725669689398 3.256434479872986
1.562584551913429 1.810197433371323 0 -1.810197433371323 1.562584551913429
2.190723915347018 1.790094090918509 0 -1.790094090918509 2.190723915347018
2.629133885368784 1.855536167543064 0 -1.855536167543064 2.629133885368784
1.151640227771111 1.799816258690813 0 -1.799816258690813 1.151640227771111
3.684210526314957 1.81767886236069 0 -1.81767886236069 3.684210526314957
4.156369463361857 1.75813739409537 0 -1.75813739409537 4.156369463361857
9.514308690093825 1.270419109215288 0 -1.270419109215288 9.514308690093825
6.368421052625903 1.731582667764421 0 -1.731582667764421 6.368421052625903
5.736842105256486 1.732592986303623 0 -1.732592986303623 5.736842105256486
7.013475886574717 1.743697758977773 0 -1.743697758977773 7.013475886574717
8.867903492950798 1.691731691219688 0 -1.691731691219688 8.867903492950798
5.101204369334352 1.745007603046249 0 -1.745007603046249 5.101204369334352
7.675540228521698 1.769322379796358 0 -1.769322379796358 7.675540228521698
8.211098333383454 1.769274711029112 0 -1.769274711029112 8.211098333383454
1.929257271483835 1.297604104925679 0 -1.297604104925679 1.929257271483835
2.956914019945223 1.292197018794748 0 -1.292197018794748 2.956914019945223
0.8952216337584296 1.297013549074125 0 -1.297013549074125 0.8952216337584296
4.692724345141631 1.265764967798372 0 -1.265764967798372 4.692724345141631
3.605480719197626 1.282602974077186 0 -1.282602974077186 3.605480719197626
9.784449913177449 1.627249679403497 0 -1.627249679403497 9.784449913177449
0.2499594683351818 1.3832274061486 0 -1.3832274061486 0.2499594683351818
6.038803906316017 1.278012830806594 0 -1.278012830806594 6.038803906316017
6.710828796126518 1.272591073696496 0 -1.272591073696496 6.710828796126518
5.370235934661727 1.2757704102886 0 -1.2757704102886 5.370235934661727
7.413793103448269 1.29862944958084 0 -1.29862944958084 7.413793103448269
8.450587583785479 1.278380782449764 0 -1.278380782449764 8.450587583785479
3.279953596182278 1.330321480943552 0 -1.330321480943552 3.279953596182278
3.463321452752575 1.554725369483314 0 -1.554725369483314 3.463321452752575
3.066068520342127 1.516955244501551 0 -1.516955244501551 3.066068520342127
2.845191626886181 1.564842965922018 0 -1.564842965922018 2.845191626886181
2.625513341529095 1.341401651250045 0 -1.341401651250045 2.625513341529095
2.286279956158496 1.332679955651482 0 -1.332679955651482 2.286279956158496
2.081027907694549 1.541526042946679 0 -1.541526042946679 2.081027907694549
1.826772496770027 1.566278615516616 0 -1.566278615516616 1.826772496770027
1.594389260944026 1.341558824528679 0 -1.341558824528679 1.594389260944026
1.252203441521666 1.33210873866859 0 -1.33210873866859 1.252203441521666
1.047068521192881 1.537017068648389 0 -1.537017068648389 1.047068521192881
0.7359959083983497 1.60657756451816 0 -1.60657756451816 0.7359959083983497
0.5781022564742722 1.345659019419752 0 -1.345659019419752 0.5781022564742722
2.448330597424854 1.548737613314069 0 -1.548737613314069 2.448330597424854
4.455577640999193 1.751883646952267 0 -1.751883646952267 4.455577640999193
4.2668435298853 1.525649822194666 0 -1.525649822194666 4.2668435298853
3.987007424649812 1.534805720699203 0 -1.534805720699203 3.987007424649812
1.427753372083508 1.569270718150722 0 -1.569270718150722 1.427753372083508
4.773657277603153 1.748718774230886 0 -1.748718774230886 4.773657277603153
9.161558171603179 1.27974156143503 0 -1.27974156143503 9.161558171603179
9.33946388372439 1.529033784489143 0 -1.529033784489143 9.33946388372439
8.82189409175901 1.322750986732311 0 -1.322750986732311 8.82189409175901
5.044353631490471 1.269033746502592 0 -1.269033746502592 5.044353631490471
5.710339066052999 1.266645942258955 0 -1.266645942258955 5.710339066052999
7.057234708920767 1.263395081676886 0 -1.263395081676886 7.057234708920767
6.374182582891582 1.262234813126826 0 -1.262234813126826 6.374182582891582
8.106090209715424 1.273741213544793 0 -1.273741213544793 8.106090209715424
7.76067504569089 1.273021002572841 0 -1.273021002572841 7.76067504569089
7.938104281079075 1.552272323554084 0 -1.552272323554084 7.938104281079075
1.978696766576785 1.787451632419412 0 -1.787451632419412 1.978696766576785
5.420707496490712 1.741791194818407 0 -1.741791194818407 5.420707496490712
8.523518522469596 1.736172246579313 0 -1.736172246579313 8.523518522469596
6.685814798522438 1.74535319078596 0 -1.74535319078596 6.685814798522438
7.358134593920068 1.745885284075736 0 -1.745885284075736 7.358134593920068
6.0526315789412 1.737586237570523 0 -1.737586237570523 6.0526315789412
3.052937584278899 1.768803171746282 0 -1.768803171746282 3.052937584278899
3.919172932329516 1.775354312553465 0 -1.775354312553465 3.919172932329516
0.3194216066551597 1.816164881506467 0 -1.816164881506467 0.3194216066551597
0.4336219434742766 1.599051288992439 0 -1.599051288992439 0.4336219434742766
2.428372253832808 1.789366967723848 0 -1.789366967723848 2.428372253832808
3.458567807948763 1.788204730484825 0 -1.788204730484825 3.458567807948763
0.7366728658889148 1.848387057848304 0 -1.848387057848304 0.7366728658889148
1.351669025850163 1.800967861497656 0 -1.800967861497656 1.351669025850163
0.9276857275586856 1.798632991617611 0 -1.798632991617611 0.9276857275586856
9.78185598922283 1.382908498888811 0 -1.382908498888811 9.78185598922283
0.1914414430779081 1.648239545987465 0 -1.648239545987465 0.1914414430779081
3.721210333253258 1.55084287297044 0 -1.55084287297044 3.721210333253258
9.541995439994679 1.76591329031345 0 -1.76591329031345 9.541995439994679
3.901524653141641 1.261683311535681 0 -1.261683311535681 3.901524653141641
1.759252049056535 1.79889937105188 0 -1.79889937105188 1.759252049056535
4.380071457010421 1.279831267882169 0 -1.279831267882169 4.380071457010421
6.210526315783554 1.506207072807654 0 -1.506207072807654 6.210526315783554
2.809169937608804 1.802922991585845 0 -1.802922991585845 2.809169937608804
6.531979801517158 1.50723556468197 0 -1.50723556468197 6.531979801517158
5.894736842098852 1.518886056155562 0 -1.518886056155562 5.894736842098852
1.231193898076636 1.626522758773082 0 -1.626522758773082 1.231193898076636
9.584522309507353 1.51786982453405 0 -1.51786982453405 9.584522309507353
9.204949776410892 1.753059119503367 0 -1.753059119503367 9.204949776410892
9.073476548126616 1.519952720767912 0 -1.519952720767912 9.073476548126616
2.265261055052621 1.623571953004419 0 -1.623571953004419 2.265261055052621
6.873014007995952 1.502663011115433 0 -1.502663011115433 6.873014007995952
5.575577901212954 1.523143838368515 0 -1.523143838368515 5.575577901212954
4.592400937931894 1.537028527347171 0 -1.537028527347171 4.592400937931894
4.919465134620914 1.522914008654646 0 -1.522914008654646 4.919465134620914
7.238750056314109 1.483705396873513 0 -1.483705396873513 7.238750056314109
8.607495056528727 1.489839294295764 0 -1.489839294295764 8.607495056528727
5.250623634477041 1.523213834781978 0 -1.523213834781978 5.250623634477041
7.576556206695008 1.499956817073163 0 -1.499956817073163 7.576556206695008
0.1961996040444756 1.171368700473837 0 -1.171368700473837 0.1961996040444756
9.790267418621951 1.18066552162082 0 -1.18066552162082 9.790267418621951
8.291624730046951 1.49784774414829 0 -1.49784774414829 8.291624730046951
0.3862109656802994 1.223616096220587 0 -1.223616096220587 0.3862109656802994
1.617854855377976 1.625012439872702 0 -1.625012439872702 1.617854855377976
9.802131175897486 1.828632593943389 0 -1.828632593943389 9.802131175897486
7.943895937016615 1.818173882875911 0 -1.818173882875911 7.943895937016615
0.1442778731044231 1.842880885498786 0 -1.842880885498786 0.1442778731044231
2.637120460785031 1.63963748882043 0 -1.63963748882043 2.637120460785031
4.134675619833986 1.320394024462344 0 -1.320394024462344 4.134675619833986
3.262880573562937 1.632289277808153 0 -1.632289277808153 3.262880573562937
3.57894736841994 1.676851220800285 0 -1.676851220800285 3.57894736841994
2 3 1 65
356
357
358
359
360
361
362
363
364
365
366
367
368
369
370
371
372
373
374
375
376
377
378
379
380
381
382
383
384
385
386
387
388
389
390
391
392
393
394
395
396
397
398
399
400
401
402
403
404
405
406
407
408
409
410
411
412
413
414
415
416
417
418
419
420
5.965881123767929 2.76062742467477 0 2.76062742467477 5.965881123767929
6.947368421052635 2.817678862361171 0 2.817678862361171 6.947368421052635
7.580974130849571 2.832346927762186 0 2.832346927762186 7.580974130849571
8.194226202077548 2.7872578537664 0 2.7872578537664 8.194226202077548
8.810620729626455 2.783435375996194 0 2.783435375996194 8.810620729626455
9.479906835187286 2.781294772923377 0 2.781294772923377 9.479906835187286
6.526315789473683 2.82059140972263 0 2.82059140972263 6.526315789473683
7.327038814141607 2.267811749868252 0 2.267811749868252 7.327038814141607
7.955427856345368 2.27485936123738 0 2.27485936123738 7.955427856345368
8.598663377623518 2.274734882830381 0 2.274734882830381 8.598663377623518
9.192249988757087 2.270672066516605 0 2.270672066516605 9.192249988757087
6.379818096657171 2.273985094451187 0 2.273985094451187 6.379818096657171
5.74377727646169 2.269901567188939 0 2.269901567188939 5.74377727646169
9.781293517751294 2.39262236294512 0 2.39262236294512 9.781293517751294
5.323375230097163 2.416235448110351 0 2.416235448110351 5.323375230097163
8.897494590412775 2.264057376410339 0 2.264057376410339 8.897494590412775
9.049239823118715 2.499764231791817 0 2.499764231791817 9.049239823118715
9.324657848078816 2.570787516681107 0 2.570787516681107 9.324657848078816
8.762094590285898 2.519782202408542 0 2.519782202408542 8.762094590285898
8.480077254871471 2.53824449535109 0 2.53824449535109 8.480077254871471
8.286203238926648 2.321695543556254 0 2.321695543556254 8.286203238926648
8.079807307703684 2.545416664469299 0 2.545416664469299 8.079807307703684
7.81440455326563 2.520796268110082 0 2.520796268110082 7.81440455326563
7.63953860746834 2.315653857318587 0 2.315653857318587 7.63953860746834
7.428578627191175 2.49395927829484 0 2.49395927829484 7.428578627191175
7.217200568407451 2.539856690184831 0 2.539856690184831 7.217200568407451
7.01302156934681 2.325713238514281 0 2.325713238514281 7.01302156934681
6.696361974016968 2.283775376617474 0 2.283775376617474 6.696361974016968
6.532311101112377 2.497401383638822 0 2.497401383638822 6.532311101112377
6.278714901519743 2.570032608762955 0 2.570032608762955 6.278714901519743
6.092823123096161 2.303848364430677 0 2.303848364430677 6.092823123096161
6.795331481995488 2.576194625387448 0 2.576194625387448 6.795331481995488
9.535026651269137 2.279010760763664 0 2.279010760763664 9.535026651269137
7.976324458888193 2.780446073887632 0 2.780446073887632 7.976324458888193
9.159510644012222 2.740112248968457 0 2.740112248968457 9.159510644012222
7.378742979285978 2.752849219175368 0 2.752849219175368 7.378742979285978
5.896734797610536 2.500821380331409 0 2.500821380331409 5.896734797610536
5.618650593061147 2.516011715139329 0 2.516011715139329 5.618650593061147
9.607755085436404 2.561006113308976 0 2.561006113308976 9.607755085436404
9.73723172009564 2.792390442211962 0 2.792390442211962 9.73723172009564
8.437652696543031 2.771985060011152 0 2.771985060011152 8.437652696543031
6.73684210526315 2.817678862361171 0 2.817678862361171 6.73684210526315
6.332929466807284 2.815738884606349 0 2.815738884606349 6.332929466807284
8.628979285220989 2.83278087218189 0 2.83278087218189 8.628979285220989
5.097207246742679 2.263622758239938 0 2.263622758239938 5.097207246742679
7.14482294970639 2.788295895348414 0 2.788295895348414 7.14482294970639
5.488870410847199 2.234327093338182 0 2.234327093338182 5.488870410847199
4.864630712583312 2.215183019277807 0 2.215183019277807 4.864630712583312
7.765670184968543 2.793425070661525 0 2.793425070661525 7.765670184968543
8.287315427422115 2.622026264055927 0 2.622026264055927 8.287315427422115
7.01963107173213 2.612360073219198 0 2.612360073219198 7.01963107173213
9.825256064656669 2.599203783693212 0 2.599203783693212 9.825256064656669
5.76291996955459 2.688825437362435 0 2.688825437362435 5.76291996955459
7.613333157042568 2.620683022788665 0 2.620683022788665 7.613333157042568
9.009198347107336 2.838214838333586 0 2.838214838333586 9.009198347107336
6.142040718530696 2.803612834035591 0 2.803612834035591 6.142040718530696
6.4491364956342 2.672533890727913 0 2.672533890727913 6.4491364956342
8.958132826830125 2.676261779499719 0 2.676261779499719 8.958132826830125
9.800106139067147 2.184326624741757 0 2.184326624741757 9.800106139067147
6.62298144275011 2.673603055496416 0 2.673603055496416 6.62298144275011
6.069295353606432 2.593505267306313 0 2.593505267306313 6.069295353606432
9.305175103825549 2.836887213688412 0 2.836887213688412 9.305175103825549
5.286012574742074 2.219263538771989 0 2.219263538771989 5.286012574742074
9.885407919941889 2.882569721823565 0 2.882569721823565 9.885407919941889
8.62513658833649 2.674800556433674 0 2.674800556433674 8.62513658833649
2 4 1 56
421
422
423
424
425
426
427
428
429
430
431
432
433
434
435
436
437
438
439
440
441
442
443
444
445
446
447
448
449
450
451
452
453
454
455
456
457
458
459
460
461
462
463
464
465
466
467
468
469
470
471
472
473
474
475
476
9.473684210526315 3.182321137638828 0 -3.182321137638828 9.473684210526315
9.05263157894737 3.182321137638829 0 -3.182321137638829 9.05263157894737
8.642619659770514 3.204692203102574 0 -3.204692203102574 8.642619659770514
8.216748912634301 3.190530274545473 0 -3.190530274545473 8.216748912634301
9.192722183604685 3.819962791837983 0 -3.819962791837983 9.192722183604685
8.776945332311795 3.807981288101846 0 -3.807981288101846 8.776945332311795
8.362302447051757 3.820859144293616 0 -3.820859144293616 8.362302447051757
7.767658530503548 3.206012087880477 0 -3.206012087880477 7.767658530503548
9.782497424359496 3.612476769057421 0 -3.612476769057421 9.782497424359496
7.345004233466375 3.196407835552319 0 -3.196407835552319 7.345004233466375
7.766522587786362 3.651071032410248 0 -3.651071032410248 7.766522587786362
7.11744693832116 3.329514088623041 0 -3.329514088623041 7.11744693832116
7.971371272289254 3.750913739597451 0 -3.750913739597451 7.971371272289254
7.957445140854148 3.528886923121397 0 -3.528886923121397 7.957445140854148
8.151167189256121 3.60890849542044 0 -3.60890849542044 8.151167189256121
7.333488342784368 3.442562653591175 0 -3.442562653591175 7.333488342784368
7.532705151202062 3.346168959406993 0 -3.346168959406993 7.532705151202062
9.782999491220552 3.361097850070842 0 -3.361097850070842 9.782999491220552
9.582122588874004 3.505357193665882 0 -3.505357193665882 9.582122588874004
9.577772736810971 3.728265747930464 0 -3.728265747930464 9.577772736810971
9.397710711950054 3.600108590852736 0 -3.600108590852736 9.397710711950054
9.37840407171538 3.374249908660713 0 -3.374249908660713 9.37840407171538
9.20480366074252 3.502728154507563 0 -3.502728154507563 9.20480366074252
8.141183618668538 3.390649635078707 0 -3.390649635078707 8.141183618668538
8.35237117000055 3.49436575378159 0 -3.49436575378159 8.35237117000055
7.75154972481472 3.439333297304812 0 -3.439333297304812 7.75154972481472
8.556399634896488 3.808037239704809 0 -3.808037239704809 8.556399634896488
8.67118575097761 3.614966506181919 0 -3.614966506181919 8.67118575097761
8.88044429323593 3.620208285964566 0 -3.620208285964566 8.88044429323593
8.763590343372522 3.40735962716414 0 -3.40735962716414 8.763590343372522
8.989625531999398 3.811671605384745 0 -3.811671605384745 8.989625531999398
8.842105263157885 3.182321137638829 0 -3.182321137638829 8.842105263157885
8.519162942386098 3.417153952842704 0 -3.417153952842704 8.519162942386098
8.420942365173193 3.191831769667899 0 -3.191831769667899 8.420942365173193
9.676401080466039 3.171034589396056 0 -3.171034589396056 9.676401080466039
9.264821731250812 3.177465585640338 0 -3.177465585640338 9.264821731250812
8.008204785179402 3.188331660461989 0 -3.188331660461989 8.008204785179402
8.994708920080075 3.413953927981284 0 -3.413953927981284 8.994708920080075
6.92321088258389 3.198116772218033 0 -3.198116772218033 6.92321088258389
7.550041070205907 3.555967993445192 0 -3.555967993445192 7.550041070205907
7.565879626979457 3.1527037936002 0 -3.1527037936002 7.565879626979457
8.478303627912188 3.635643822413878 0 -3.635643822413878 8.478303627912188
9.381708025884446 3.7999928878178 0 -3.7999928878178 9.381708025884446
9.06998173734496 3.63592227908912 0 -3.63592227908912 9.06998173734496
9.749991885751719 3.812032916868425 0 -3.812032916868425 9.749991885751719
9.163407870876155 3.327005664811532 0 -3.327005664811532 9.163407870876155
8.171700264709665 3.80542554545924 0 -3.80542554545924 8.171700264709665
7.157894736842099 3.141944059956097 0 -3.141944059956097 7.157894736842099
9.578722288560456 3.318812135886464 0 -3.318812135886464 9.578722288560456
6.733972434185555 3.136931891669956 0 -3.136931891669956 6.733972434185555
7.925208360004072 3.350642720769477 0 -3.350642720769477 7.925208360004072
9.849774851179426 3.15642648789338 0 -3.15642648789338 9.849774851179426
8.305017413090363 3.338614187516645 0 -3.338614187516645 8.305017413090363
9.241435077854764 3.661886902681244 0 -3.661886902681244 9.241435077854764
6.579543024848808 3.138497489445102 0 -3.138497489445102 6.579543024848808
8.312949928024054 3.662672229581595 0 -3.662672229581595 8.312949928024054
$EndNodes
$Elements
29 1028 1 1028
0 1 15 1
1 1 
0 2 15 1
2 2 
0 3 15 1
3 3 
0 4 15 1
4 4 
0 5 15 1
5 5 
0 6 15 1
6 6 
0 7 15 1
7 7 
0 8 15 1
8 8 
0 9 15 1
9 9 
0 10 15 1
10 10 
0 11 15 1
11 11 
1 1 1 29
12 1 12 
13 12 13 
14 13 14 
15 14 15 
16 15 16 
17 16 17 
18 17 18 
19 18 19 
20 19 20 
21 20 21 
22 21 22 
23 22 23 
24 23 24 
25 24 25 
26 25 26 
27 26 27 
28 27 28 
29 28 29 
30 29 30 
31 30 31 
32 31 32 
33 32 33 
34 33 34 
35 34 35 
36 35 36 
37 36 37 
38 37 38 
39 38 39 
40 39 2 
1 2 1 4
41 2 40 
42 40 41 
43 41 42 
44 42 6 
1 3 1 29
45 6 43 
46 43 44 
47 44 45 
48 45 46 
49 46 47 
50 47 48 
51 48 49 
52 49 50 
53 50 51 
54 51 52 
55 52 53 
56 53 54 
57 54 55 
58 55 56 
59 56 57 
60 57 58 
61 58 59 
62 59 60 
63 60 61 
64 61 62 
65 62 63 
66 63 64 
67 64 65 
68 65 66 
69 66 67 
70 67 68 
71 68 69 
72 69 70 
73 70 11 
1 4 1 4
74 11 71 
75 71 72 
76 72 73 
77 73 1 
1 5 1 4
78 11 74 
79 74 75 
80 75 76 
81 76 5 
1 6 1 19
82 5 77 
83 77 78 
84 78 79 
85 79 80 
86 80 81 
87 81 82 
88 82 83 
89 83 84 
90 84 85 
91 85 86 
92 86 87 
93 87 88 
94 88 89 
95 89 90 
96 90 91 
97 91 92 
98 92 93 
99 93 94 
100 94 10 
1 7 1 19
101 10 95 
102 95 96 
103 96 97 
104 97 98 
105 98 99 
106 99 100 
107 100 101 
108 101 102 
109 102 103 
110 103 104 
111 104 105 
112 105 106 
113 106 107 
114 107 108 
115 108 109 
116 109 110 
117 110 111 
118 111 112 
119 112 4 
1 8 1 4
120 4 113 
121 113 114 
122 114 115 
123 115 7 
1 9 1 19
124 7 116 
125 116 117 
126 117 118 
127 118 119 
128 119 120 
129 120 121 
130 121 122 
131 122 123 
132 123 124 
133 124 125 
134 125 126 
135 126 127 
136 127 128 
137 128 129 
138 129 130 
139 130 131 
140 131 132 
141 132 133 
142 133 9 
1 10 1 9
143 9 134 
144 134 135 
145 135 136 
146 136 137 
147 137 138 
148 138 139 
149 139 140 
150 140 141 
151 141 10 
1 11 1 9
152 9 142 
153 142 143 
154 143 144 
155 144 145 
156 145 146 
157 146 147 
158 147 148 
159 148 149 
160 149 8 
1 12 1 9
161 8 150 
162 150 151 
163 151 152 
164 152 153 
165 153 154 
166 154 155 
167 155 156 
168 156 157 
169 157 3 
1 13 1 4
170 3 158 
171 158 159 
172 159 160 
173 160 7 
1 14 1 4
174 4 161 
175 161 162 
176 162 163 
177 163 6 
2 1 2 232
178 1 12 73 
179 73 12 164 
180 73 164 72 
181 72 164 165 
182 72 165 71 
183 71 165 166 
184 71 166 11 
185 11 166 70 
186 12 13 164 
187 164 13 167 
188 164 167 165 
189 165 167 168 
190 165 168 166 
191 166 168 169 
192 166 169 70 
193 70 169 69 
194 13 14 167 
195 167 14 170 
196 167 170 168 
197 168 170 171 
198 168 171 169 
199 169 171 172 
200 169 172 69 
201 69 172 68 
202 14 15 170 
203 170 15 173 
204 170 173 171 
205 171 173 174 
206 171 174 172 
207 172 174 175 
208 172 175 68 
209 68 175 67 
210 15 16 173 
211 173 16 176 
212 173 176 174 
213 174 176 177 
214 174 177 175 
215 175 177 178 
216 175 178 67 
217 67 178 66 
218 16 17 176 
219 176 17 179 
220 176 179 177 
221 177 179 180 
222 177 180 178 
223 178 180 181 
224 178 181 66 
225 66 181 65 
226 17 18 179 
227 179 18 182 
228 179 182 180 
229 180 182 183 
230 180 183 181 
231 181 183 184 
232 181 184 65 
233 65 184 64 
234 18 19 182 
235 182 19 185 
236 182 185 183 
237 183 185 186 
238 183 186 184 
239 184 186 187 
240 184 187 64 
241 64 187 63 
242 19 20 185 
243 185 20 188 
244 185 188 186 
245 186 188 189 
246 186 189 187 
247 187 189 190 
248 187 190 63 
249 63 190 62 
250 20 21 188 
251 188 21 191 
252 188 191 189 
253 189 191 192 
254 189 192 190 
255 190 192 193 
256 190 193 62 
257 62 193 61 
258 21 22 191 
259 191 22 194 
260 191 194 192 
261 192 194 195 
262 192 195 193 
263 193 195 196 
264 193 196 61 
265 61 196 60 
266 22 23 194 
267 194 23 197 
268 194 197 195 
269 195 197 198 
270 195 198 196 
271 196 198 199 
272 196 199 60 
273 60 199 59 
274 23 24 197 
275 197 24 200 
276 197 200 198 
277 198 200 201 
278 198 201 199 
279 199 201 202 
280 199 202 59 
281 59 202 58 
282 24 25 200 
283 200 25 203 
284 200 203 201 
285 201 203 204 
286 201 204 202 
287 202 204 205 
288 202 205 58 
289 58 205 57 
290 25 26 203 
291 203 26 206 
292 203 206 204 
293 204 206 207 
294 204 207 205 
295 205 207 208 
296 205 208 57 
297 57 208 56 
298 26 27 206 
299 206 27 209 
300 206 209 207 
301 207 209 210 
302 207 210 208 
303 208 210 211 
304 208 211 56 
305 56 211 55 
306 27 28 209 
307 209 28 212 
308 209 212 210 
309 210 212 213 
310 210 213 211 
311 211 213 214 
312 211 214 55 
313 55 214 54 
314 28 29 212 
315 212 29 215 
316 212 215 213 
317 213 215 216 
318 213 216 214 
319 214 216 217 
320 214 217 54 
321 54 217 53 
322 29 30 215 
323 215 30 218 
324 215 218 216 
325 216 218 219 
326 216 219 217 
327 217 219 220 
328 217 220 53 
329 53 220 52 
330 30 31 218 
331 218 31 221 
332 218 221 219 
333 219 221 222 
334 219 222 220 
335 220 222 223 
336 220 223 52 
337 52 223 51 
338 31 32 221 
339 221 32 224 
340 221 224 222 
341 222 224 225 
342 222 225 223 
343 223 225 226 
344 223 226 51 
345 51 226 50 
346 32 33 224 
347 224 33 227 
348 224 227 225 
349 225 227 228 
350 225 228 226 
351 226 228 229 
352 226 229 50 
353 50 229 49 
354 33 34 227 
355 227 34 230 
356 227 230 228 
357 228 230 231 
358 228 231 229 
359 229 231 232 
360 229 232 49 
361 49 232 48 
362 34 35 230 
363 230 35 233 
364 230 233 231 
365 231 233 234 
366 231 234 232 
367 232 234 235 
368 232 235 48 
369 48 235 47 
370 35 36 233 
371 233 36 236 
372 233 236 234 
373 234 236 237 
374 234 237 235 
375 235 237 238 
376 235 238 47 
377 47 238 46 
378 36 37 236 
379 236 37 239 
380 236 239 237 
381 237 239 240 
382 237 240 238 
383 238 240 241 
384 238 241 46 
385 46 241 45 
386 37 38 239 
387 239 38 242 
388 239 242 240 
389 240 242 243 
390 240 243 241 
391 241 243 244 
392 241 244 45 
393 45 244 44 
394 38 39 242 
395 242 39 245 
396 242 245 243 
397 243 245 246 
398 243 246 244 
399 244 246 247 
400 244 247 44 
401 44 247 43 
402 39 2 245 
403 245 2 40 
404 245 40 246 
405 246 40 41 
406 246 41 247 
407 247 41 42 
408 247 42 43 
409 43 42 6 
2 2 2 289
410 248 287 314 
411 68 266 285 
412 65 264 281 
413 281 264 282 
414 285 266 286 
415 280 64 281 
416 284 67 285 
417 288 270 314 
418 287 248 317 
419 90 91 311 
420 91 249 311 
421 286 287 319 
422 63 64 280 
423 297 260 334 
424 66 67 284 
425 85 86 305 
426 287 288 314 
427 260 297 341 
428 326 291 338 
429 256 320 345 
430 86 251 305 
431 311 249 354 
432 253 286 319 
433 276 265 278 
434 64 65 281 
435 67 68 285 
436 267 326 338 
437 270 288 347 
438 251 282 305 
439 287 317 319 
440 62 265 276 
441 280 281 289 
442 284 285 293 
443 268 276 277 
444 10 95 255 
445 277 276 354 
446 276 278 354 
447 266 69 288 
448 288 69 347 
449 254 312 322 
450 265 63 280 
451 278 265 279 
452 264 66 284 
453 336 259 340 
454 278 311 354 
455 70 11 344 
456 6 43 345 
457 282 264 283 
458 307 341 346 
459 268 61 276 
460 250 293 318 
461 43 256 345 
462 94 10 312 
463 286 266 287 
464 46 275 297 
465 97 261 294 
466 314 270 321 
467 282 251 335 
468 315 252 352 
469 300 336 340 
470 263 307 346 
471 68 69 266 
472 65 66 264 
473 62 63 265 
474 60 61 268 
475 43 44 256 
476 49 274 303 
477 269 323 349 
478 61 62 276 
479 286 253 331 
480 96 97 294 
481 256 44 295 
482 282 283 305 
483 57 267 298 
484 271 54 299 
485 274 50 300 
486 53 271 301 
487 256 295 296 
488 278 279 311 
489 45 46 297 
490 340 309 343 
491 295 45 297 
492 267 338 339 
493 302 303 304 
494 254 94 312 
495 302 48 303 
496 273 56 298 
497 55 273 299 
498 51 272 300 
499 275 47 302 
500 272 52 301 
501 10 255 312 
502 48 49 303 
503 57 58 267 
504 55 56 273 
505 49 50 274 
506 51 52 272 
507 46 47 275 
508 53 54 271 
509 322 292 324 
510 44 45 295 
511 290 96 294 
512 56 57 298 
513 54 55 299 
514 50 51 300 
515 52 53 301 
516 47 48 302 
517 293 250 348 
518 298 267 339 
519 304 263 346 
520 287 266 288 
521 289 315 352 
522 268 322 324 
523 279 265 280 
524 262 304 343 
525 69 70 347 
526 283 264 284 
527 285 286 331 
528 281 282 335 
529 255 291 292 
530 309 262 343 
531 112 4 349 
532 268 277 322 
533 97 98 261 
534 98 99 306 
535 108 109 307 
536 109 110 260 
537 107 108 263 
538 102 103 308 
539 103 104 259 
540 105 106 262 
541 101 102 257 
542 99 100 258 
543 104 105 309 
544 100 101 310 
545 95 96 290 
546 307 260 341 
547 289 281 335 
548 312 292 322 
549 293 285 331 
550 304 303 343 
551 261 98 306 
552 99 258 306 
553 109 260 307 
554 259 104 309 
555 103 259 308 
556 101 257 310 
557 258 100 310 
558 105 262 309 
559 257 102 308 
560 263 108 307 
561 59 60 324 
562 267 58 326 
563 263 304 350 
564 59 324 353 
565 255 290 291 
566 85 305 325 
567 302 304 346 
568 328 279 352 
569 295 297 334 
570 280 289 352 
571 273 298 342 
572 162 163 320 
573 86 87 251 
574 87 88 315 
575 91 92 249 
576 93 94 254 
577 88 89 252 
578 92 93 316 
579 79 80 317 
580 78 79 248 
581 81 82 253 
582 83 84 250 
583 82 83 318 
584 80 81 319 
585 90 311 328 
586 161 162 269 
587 77 78 313 
588 74 75 270 
589 284 293 348 
590 316 277 354 
591 323 112 349 
592 305 283 325 
593 298 339 342 
594 249 316 354 
595 255 95 290 
596 252 328 352 
597 60 268 324 
598 283 284 348 
599 304 262 350 
600 311 279 328 
601 279 280 352 
602 76 5 351 
603 75 76 321 
604 255 292 312 
605 259 309 340 
606 260 110 333 
607 84 85 325 
608 325 283 348 
609 111 112 323 
610 262 106 350 
611 107 263 350 
612 297 275 341 
613 299 273 337 
614 270 75 321 
615 338 294 339 
616 89 90 328 
617 260 333 334 
618 300 272 336 
619 271 299 330 
620 88 252 315 
621 251 87 315 
622 93 254 316 
623 249 92 316 
624 248 79 317 
625 317 80 319 
626 253 82 318 
627 83 250 318 
628 81 253 319 
629 291 290 338 
630 269 162 320 
631 78 248 313 
632 294 261 339 
633 313 314 321 
634 250 325 348 
635 5 77 351 
636 326 59 353 
637 254 322 355 
638 318 293 331 
639 315 289 335 
640 320 256 332 
641 251 315 335 
642 301 271 327 
643 313 248 314 
644 341 275 346 
645 111 323 333 
646 272 301 329 
647 274 340 343 
648 337 273 342 
649 303 274 343 
650 323 296 333 
651 58 59 326 
652 256 296 332 
653 274 300 340 
654 253 318 331 
655 277 316 355 
656 330 299 337 
657 310 257 327 
658 275 302 346 
659 250 84 325 
660 296 295 334 
661 110 111 333 
662 161 269 349 
663 272 329 336 
664 313 321 351 
665 290 294 338 
666 327 257 329 
667 320 163 345 
668 257 308 329 
669 310 327 330 
670 269 320 332 
671 258 310 330 
672 74 270 344 
673 323 269 332 
674 339 261 342 
675 106 107 350 
676 333 296 334 
677 252 89 328 
678 308 259 336 
679 329 308 336 
680 301 327 329 
681 327 271 330 
682 321 76 351 
683 306 258 337 
684 258 330 337 
685 11 74 344 
686 163 6 345 
687 261 306 342 
688 306 337 342 
689 322 277 355 
690 4 161 349 
691 296 323 332 
692 292 291 353 
693 77 313 351 
694 344 270 347 
695 324 292 353 
696 316 254 355 
697 291 326 353 
698 70 344 347 
2 3 2 179
699 127 128 391 
700 124 125 389 
701 364 107 376 
702 373 361 417 
703 359 124 389 
704 361 373 394 
705 364 376 377 
706 379 378 409 
707 385 398 411 
708 380 379 409 
709 358 391 409 
710 387 382 406 
711 367 102 383 
712 377 359 389 
713 368 100 386 
714 367 383 384 
715 136 370 393 
716 358 127 391 
717 383 382 387 
718 107 108 376 
719 135 136 393 
720 139 140 96 
721 116 117 395 
722 390 373 417 
723 103 382 383 
724 385 411 416 
725 391 380 409 
726 111 112 388 
727 378 389 404 
728 364 378 379 
729 388 112 414 
730 369 388 414 
731 97 98 400 
732 139 96 403 
733 368 386 392 
734 371 366 372 
735 361 394 395 
736 400 98 418 
737 117 361 395 
738 387 357 397 
739 100 101 386 
740 381 391 401 
741 374 360 420 
742 378 404 409 
743 360 374 413 
744 103 104 382 
745 393 370 402 
746 365 374 375 
747 102 103 383 
748 381 401 406 
749 106 364 379 
750 110 366 371 
751 364 377 378 
752 365 371 374 
753 382 381 406 
754 384 383 387 
755 108 365 376 
756 359 377 405 
757 363 379 380 
758 372 366 373 
759 371 372 374 
760 391 128 401 
761 378 377 389 
762 377 376 405 
763 367 384 385 
764 388 369 394 
765 372 373 390 
766 363 380 381 
767 366 111 388 
768 395 115 419 
769 396 375 420 
770 115 395 407 
771 365 109 371 
772 363 105 379 
773 381 380 391 
774 101 367 386 
775 398 385 412 
776 106 107 364 
777 104 105 363 
778 110 111 366 
779 101 102 367 
780 108 109 365 
781 104 363 382 
782 357 387 406 
783 99 100 368 
784 360 399 420 
785 375 396 405 
786 109 110 371 
787 105 106 379 
788 376 375 405 
789 97 400 403 
790 373 388 394 
791 9 134 356 
792 389 125 404 
793 365 375 376 
794 399 396 420 
795 373 366 388 
796 390 119 410 
797 119 390 417 
798 368 393 402 
799 96 97 403 
800 363 381 382 
801 367 385 386 
802 375 374 420 
803 98 99 402 
804 368 392 393 
805 113 114 369 
806 131 132 362 
807 129 130 357 
808 130 131 397 
809 126 127 358 
810 122 123 396 
811 117 118 361 
812 120 121 360 
813 123 124 359 
814 121 122 399 
815 112 4 414 
816 132 133 398 
817 136 137 370 
818 401 357 406 
819 386 385 416 
820 116 395 419 
821 135 393 408 
822 137 138 400 
823 114 115 407 
824 392 386 416 
825 374 372 413 
826 387 397 415 
827 98 402 418 
828 115 7 419 
829 384 387 415 
830 128 129 401 
831 125 126 404 
832 134 135 408 
833 123 359 396 
834 357 130 397 
835 131 362 397 
836 360 121 399 
837 122 396 399 
838 385 384 412 
839 362 132 398 
840 119 120 410 
841 372 390 413 
842 129 357 401 
843 396 359 405 
844 118 119 417 
845 99 368 402 
846 370 137 400 
847 395 394 407 
848 392 356 408 
849 133 9 411 
850 356 392 416 
851 394 369 407 
852 4 113 414 
853 9 356 411 
854 138 139 403 
855 404 358 409 
856 400 138 403 
857 393 392 408 
858 126 358 404 
859 411 356 416 
860 369 114 407 
861 390 410 413 
862 356 134 408 
863 120 360 410 
864 7 116 419 
865 398 133 411 
866 113 369 414 
867 361 118 417 
868 362 398 412 
869 397 362 415 
870 362 412 415 
871 370 400 418 
872 402 370 418 
873 412 384 415 
874 410 360 413 
875 141 10 95 
876 96 140 95 
877 140 141 95 
2 4 2 151
878 157 3 465 
879 422 452 458 
880 452 450 458 
881 3 158 465 
882 423 450 452 
883 437 428 461 
884 428 437 446 
885 450 423 453 
886 432 430 468 
887 430 432 436 
888 129 459 468 
889 122 123 454 
890 129 130 459 
891 440 156 465 
892 444 424 457 
893 436 147 460 
894 448 453 462 
895 437 436 460 
896 448 450 453 
897 123 424 454 
898 423 122 454 
899 444 457 471 
900 459 432 468 
901 156 440 463 
902 149 8 433 
903 442 421 456 
904 156 157 465 
905 453 445 462 
906 442 456 466 
907 429 438 439 
908 431 433 434 
909 430 436 437 
910 445 453 473 
911 453 454 473 
912 431 149 433 
913 434 433 435 
914 422 458 466 
915 429 439 440 
916 429 159 438 
917 432 146 436 
918 440 439 441 
919 453 423 454 
920 158 159 429 
921 145 146 432 
922 441 439 442 
923 154 425 451 
924 441 442 443 
925 148 149 431 
926 159 160 438 
927 434 435 444 
928 146 147 436 
929 446 437 460 
930 444 435 445 
931 427 151 447 
932 153 154 451 
933 448 449 450 
934 447 426 448 
935 152 426 447 
936 448 426 449 
937 152 153 426 
938 150 151 427 
939 154 155 425 
940 431 434 446 
941 426 153 451 
942 151 152 447 
943 450 449 458 
944 449 426 451 
945 144 145 459 
946 158 429 465 
947 121 122 423 
948 120 121 452 
949 117 118 421 
950 119 120 422 
951 123 124 424 
952 118 119 456 
953 443 442 466 
954 433 8 467 
955 119 422 456 
956 422 120 452 
957 121 423 452 
958 421 118 456 
959 124 125 457 
960 431 446 460 
961 424 124 457 
962 116 117 455 
963 125 126 428 
964 463 441 474 
965 145 432 459 
966 127 128 430 
967 117 421 455 
968 451 425 464 
969 425 463 474 
970 147 148 460 
971 125 428 457 
972 427 447 462 
973 435 467 476 
974 467 427 476 
975 434 444 471 
976 155 156 463 
977 443 458 464 
978 458 449 464 
979 430 437 461 
980 8 150 467 
981 160 7 472 
982 440 441 463 
983 428 126 461 
984 148 431 460 
985 127 430 461 
986 439 438 469 
987 421 442 469 
988 438 160 472 
989 144 459 470 
990 435 433 467 
991 132 143 475 
992 143 144 475 
993 428 446 471 
994 455 438 472 
995 131 132 475 
996 126 127 461 
997 430 128 468 
998 7 116 472 
999 442 439 469 
1000 438 455 469 
1001 447 448 462 
1002 458 443 466 
1003 425 155 463 
1004 457 428 471 
1005 449 451 464 
1006 424 444 473 
1007 429 440 465 
1008 464 425 474 
1009 150 427 467 
1010 456 422 466 
1011 454 424 473 
1012 459 130 470 
1013 446 434 471 
1014 128 129 468 
1015 427 462 476 
1016 444 445 473 
1017 130 131 470 
1018 455 421 469 
1019 441 443 474 
1020 445 435 476 
1021 116 455 472 
1022 144 470 475 
1023 462 445 476 
1024 443 464 474 
1025 470 131 475 
1026 133 9 142 
1027 132 133 142 
1028 132 142 143 
$EndElements
