$MeshFormat
4.1 0 8
$EndMeshFormat
$PhysicalNames
3
1 5 "bottomfix"
1 6 "load"
2 7 "soil1"
$EndPhysicalNames
$Entities
4 4 1 0
1 0 0 0 0 
2 1 0 0 0 
3 1 2 0 0 
4 0 2 0 0 
1 0 0 0 1 0 0 1 5 2 1 -2 
2 1 0 0 1 2 0 0 2 2 -3 
3 0 2 0 1 2 0 1 6 2 3 -4 
4 0 0 0 0 2 0 0 2 4 -1 
1 0 0 0 1 2 0 1 7 4 4 1 2 3 
$EndEntities
$Nodes
9 66 1 66
0 1 0 1
1
0 0 0
0 2 0 1
2
1 0 0
0 3 0 1
3
1 2 0
0 4 0 1
4
0 2 0
1 1 0 4
5
6
7
8
0.1999999999995569 0 0
0.3999999999989731 0 0
0.599999999998945 0 0
0.7999999999994725 0 0
1 2 0 9
9
10
11
12
13
14
15
16
17
1 0.1999999999996283 0
1 0.3999999999991138 0
1 0.59999999999853 0
1 0.7999999999979462 0
1 0.9999999999973842 0
1 1.19999999999789 0
1 1.399999999998418 0
1 1.599999999998945 0
1 1.799999999999472 0
1 3 0 4
18
19
20
21
0.8 2 0
0.6000000000013874 2 0
0.400000000001665 2 0
0.2000000000008325 2 0
1 4 0 9
22
23
24
25
26
27
28
29
30
0 1.799999999999167 0
0 1.6 0
0 1.400000000001388 0
0 1.200000000002775 0
0 1.000000000004119 0
0 0.80000000000333 0
0 0.6000000000024974 0
0 0.400000000001665 0
0 0.2000000000008324 0
2 1 0 36
31
32
33
34
35
36
37
38
39
40
41
42
43
44
45
46
47
48
49
50
51
52
53
54
55
56
57
58
59
60
61
62
63
64
65
66
0.2000000000007049 1.799999999999228 0
0.4000000000013957 1.799999999999289 0
0.6000000000011431 1.799999999999351 0
0.7999999999999472 1.799999999999411 0
0.2000000000005774 1.599999999999789 0
0.4000000000011267 1.599999999999578 0
0.6000000000008988 1.599999999999367 0
0.7999999999998946 1.599999999999156 0
0.2000000000004498 1.400000000000794 0
0.4000000000008574 1.400000000000199 0
0.6000000000006546 1.399999999999606 0
0.7999999999998417 1.399999999999012 0
0.2000000000003222 1.200000000001798 0
0.4000000000005882 1.200000000000821 0
0.6000000000004103 1.199999999999844 0
0.7999999999997891 1.199999999998867 0
0.2000000000001947 1.000000000002772 0
0.4000000000003191 1.000000000001425 0
0.6000000000001661 1.000000000000078 0
0.7999999999997363 0.999999999998731 0
0.2000000000000672 0.8000000000022534 0
0.4000000000000499 0.8000000000011767 0
0.599999999999922 0.8000000000001 0
0.7999999999996834 0.799999999999023 0
0.1999999999999396 0.6000000000017041 0
0.3999999999997806 0.6000000000009105 0
0.5999999999996778 0.6000000000001169 0
0.7999999999996308 0.5999999999993235 0
0.199999999999812 0.4000000000011548 0
0.3999999999995115 0.4000000000006446 0
0.5999999999994335 0.4000000000001342 0
0.7999999999995779 0.3999999999996241 0
0.1999999999996845 0.2000000000005916 0
0.3999999999992423 0.2000000000003508 0
0.5999999999991893 0.20000000000011 0
0.7999999999995253 0.1999999999998691 0
$EndNodes
$Elements
3 60 1 60
1 1 1 5
1 1 5 
2 5 6 
3 6 7 
4 7 8 
5 8 2 
1 3 1 5
6 3 18 
7 18 19 
8 19 20 
9 20 21 
10 21 4 
2 1 3 50
11 4 22 31 21 
12 21 31 32 20 
13 20 32 33 19 
14 19 33 34 18 
15 18 34 17 3 
16 22 23 35 31 
17 31 35 36 32 
18 32 36 37 33 
19 33 37 38 34 
20 34 38 16 17 
21 23 24 39 35 
22 35 39 40 36 
23 36 40 41 37 
24 37 41 42 38 
25 38 42 15 16 
26 24 25 43 39 
27 39 43 44 40 
28 40 44 45 41 
29 41 45 46 42 
30 42 46 14 15 
31 25 26 47 43 
32 43 47 48 44 
33 44 48 49 45 
34 45 49 50 46 
35 46 50 13 14 
36 26 27 51 47 
37 47 51 52 48 
38 48 52 53 49 
39 49 53 54 50 
40 50 54 12 13 
41 27 28 55 51 
42 51 55 56 52 
43 52 56 57 53 
44 53 57 58 54 
45 54 58 11 12 
46 28 29 59 55 
47 55 59 60 56 
48 56 60 61 57 
49 57 61 62 58 
50 58 62 10 11 
51 29 30 63 59 
52 59 63 64 60 
53 60 64 65 61 
54 61 65 66 62 
55 62 66 9 10 
56 30 1 5 63 
57 63 5 6 64 
58 64 6 7 65 
59 65 7 8 66 
60 66 8 2 9 
$EndElements
