$MeshFormat
4.1 0 8
$EndMeshFormat
$PhysicalNames
3
1 5 "bottomfix"
1 6 "load"
2 7 "soil1"
$EndPhysicalNames
$Entities
4 4 1 0
1 0 0 0 0 
2 3 0 0 0 
3 3 6 0 0 
4 0 6 0 0 
1 0 0 0 3 0 0 1 5 2 1 -2 
2 3 0 0 3 6 0 0 2 2 -3 
3 0 6 0 3 6 0 1 6 2 3 -4 
4 0 0 0 0 6 0 0 2 4 -1 
1 0 0 0 3 6 0 1 7 4 1 2 3 4 
$EndEntities
$Nodes
9 45 1 45
0 1 0 1
1
0 0 0
0 2 0 1
2
3 0 0
0 3 0 1
3
3 6 0
0 4 0 1
4
0 6 0
1 1 1 3
5
6
7
0.7499999999969167 0 0 0.2499999999989722
1.499999999994286 0 0 0.4999999999980953
2.249999999997121 0 0 0.7499999999990404
1 2 1 7
8
9
10
11
12
13
14
3 0.7499999999969633 0 0.1249999999994939
3 1.499999999993833 0 0.2499999999989722
3 2.249999999991159 0 0.3749999999985265
3 2.999999999988572 0 0.4999999999980953
3 3.749999999991364 0 0.6249999999985607
3 4.499999999994243 0 0.7499999999990404
3 5.249999999997121 0 0.8749999999995202
1 3 1 3
15
16
17
2.25000000000258 6 0 0.2499999999991399
1.500000000004162 6 0 0.4999999999986127
0.7500000000021028 6 0 0.7499999999992991
1 4 1 7
18
19
20
21
22
23
24
0 5.250000000003621 0 0.1249999999993965
0 4.50000000000516 0 0.2499999999991399
0 3.750000000004965 0 0.3749999999991724
0 3.000000000008324 0 0.4999999999986127
0 2.250000000006308 0 0.6249999999989486
0 1.500000000004206 0 0.7499999999992991
0 0.7500000000021032 0 0.8749999999996495
2 1 1 21
25
26
27
28
29
30
31
32
33
34
35
36
37
38
39
40
41
42
43
44
45
0.7499999999975648 0.7500000000008182 0 0.7500000000008182 0.7499999999975648
0.7499999999982132 1.500000000001612 0 1.500000000001612 0.7499999999982132
0.7499999999988614 2.250000000002521 0 2.250000000002521 0.7499999999988614
0.7499999999995097 3.000000000003386 0 3.000000000003386 0.7499999999995097
0.7500000000001581 3.750000000001565 0 3.750000000001565 0.7500000000001581
0.7500000000008062 4.500000000002431 0 4.500000000002431 0.7500000000008062
0.7500000000014544 5.250000000001997 0 5.250000000001997 0.7500000000014544
1.49999999999552 0.7499999999995333 0 0.7499999999995333 1.49999999999552
1.499999999996755 1.499999999999019 0 1.499999999999019 1.499999999996755
1.49999999999799 2.249999999998733 0 2.249999999998733 1.49999999999799
1.499999999999224 2.999999999998448 0 2.999999999998448 1.499999999999224
1.500000000000458 3.749999999998165 0 3.749999999998165 1.500000000000458
1.500000000001693 4.499999999999701 0 4.499999999999701 1.500000000001693
1.500000000002927 5.250000000000371 0 5.250000000000371 1.500000000002927
2.249999999997804 0.7499999999982483 0 0.7499999999982483 2.249999999997804
2.249999999998487 1.499999999996426 0 1.499999999996426 2.249999999998487
2.249999999999169 2.249999999994946 0 2.249999999994946 2.249999999999169
2.249999999999851 2.99999999999351 0 2.99999999999351 2.249999999999851
2.250000000000533 3.749999999994765 0 3.749999999994765 2.250000000000533
2.250000000001215 4.499999999996972 0 4.499999999996972 2.250000000001215
2.250000000001897 5.249999999998746 0 5.249999999998746 2.250000000001897
$EndNodes
$Elements
9 60 1 60
0 1 15 1
41 1 
0 2 15 1
42 2 
0 3 15 1
43 3 
0 4 15 1
44 4 
1 1 1 4
1 1 5 
2 5 6 
3 6 7 
4 7 2 
1 2 1 8
45 2 8 
46 8 9 
47 9 10 
48 10 11 
49 11 12 
50 12 13 
51 13 14 
52 14 3 
1 3 1 4
5 3 15 
6 15 16 
7 16 17 
8 17 4 
1 4 1 8
53 4 18 
54 18 19 
55 19 20 
56 20 21 
57 21 22 
58 22 23 
59 23 24 
60 24 1 
2 1 3 32
9 1 5 25 24 
10 24 25 26 23 
11 23 26 27 22 
12 22 27 28 21 
13 21 28 29 20 
14 20 29 30 19 
15 19 30 31 18 
16 18 31 17 4 
17 5 6 32 25 
18 25 32 33 26 
19 26 33 34 27 
20 27 34 35 28 
21 28 35 36 29 
22 29 36 37 30 
23 30 37 38 31 
24 31 38 16 17 
25 6 7 39 32 
26 32 39 40 33 
27 33 40 41 34 
28 34 41 42 35 
29 35 42 43 36 
30 36 43 44 37 
31 37 44 45 38 
32 38 45 15 16 
33 7 2 8 39 
34 39 8 9 40 
35 40 9 10 41 
36 41 10 11 42 
37 42 11 12 43 
38 43 12 13 44 
39 44 13 14 45 
40 45 14 3 15 
$EndElements
